<svg width="1152" height="215" xmlns="http://www.w3.org/2000/svg" xml:space="preserve" enable-background="new 0 0 1276 336" version="1.1">

 <g>
  <title>Layer 1</title>
  <path id="svg_2" d="m79.35424,80.67797c14.84909,-3.89127 29.33749,-7.65097 43.85124,-11.31008c11.79405,-2.97346 20.5009,-9.81942 24.80934,-21.17645c4.47401,-11.79351 8.21668,-23.8733 11.99252,-35.91776c1.22419,-3.90497 2.59655,-7.32719 6.98867,-8.16796c4.63517,-0.8873 7.81459,1.56719 9.67826,5.44456c7.43535,15.46935 19.74657,24.24728 35.96743,29.59296c22.74936,7.49719 25.32437,34.25545 17.78955,49.11147c-4.50455,8.8814 -12.05386,14.29231 -22.12903,13.42669c-8.62793,-0.74127 -14.22731,2.10324 -18.20871,9.47411c-1.46774,2.71725 -3.63136,5.05861 -5.82919,8.04994c2.60171,1.05244 4.70959,1.89992 6.81353,2.75707c11.76948,4.79475 18.38416,14.59164 18.33942,27.15725c-0.02365,6.63907 -3.09799,9.8486 -9.71597,9.87737c-13.16535,0.0572 -26.33188,-0.04975 -39.49576,0.10046c-1.79744,0.02049 -4.24623,0.57794 -5.27048,1.8159c-10.09709,12.20385 -22.82657,19.57425 -39.35798,21.56115c1.60221,1.92779 2.74023,3.27949 3.85937,4.64662c4.75173,5.80467 8.13133,12.21091 8.27889,19.90106c0.10632,5.54184 -2.96669,9.02509 -8.36975,9.05411c-17.3306,0.09314 -34.68169,0.48758 -51.98835,-0.18051c-19.42349,-0.74979 -37.08419,-15.27704 -42.98775,-33.73557c-1.44817,-4.52798 -3.50266,-8.93663 -5.82277,-13.09653c-5.80092,-10.40094 -10.50657,-21.13185 -12.23842,-33.03614c-2.6537,-18.24088 3.01655,-34.18419 13.31163,-48.84858c4.4969,-6.40541 9.35284,-12.56077 13.7861,-19.00822c3.47229,-5.04986 5.7344,-10.49308 3.8133,-16.91568c-1.15738,-3.8693 -3.38258,-6.24815 -7.49007,-5.83658c-4.08678,0.40949 -7.31838,2.28428 -8.00855,6.87257c-0.07418,0.49312 -0.03633,1.00538 -0.13236,1.49261c-0.90828,4.60892 -4.4779,7.53085 -8.76813,7.19763c-4.26422,-0.33119 -7.26489,-3.70425 -7.53978,-8.47547c-1.34804,-23.39796 13.11367,-42.22788 35.91494,-47.32323c36.43841,-8.14282 58.83078,20.53203 61.74765,44.35278c0.91357,7.46077 0.87384,7.57902 -6.37972,9.26c-19.65799,4.55568 -38.42009,11.03285 -53.85933,24.75333c-1.12065,0.9959 -2.24221,1.99281 -3.32205,3.03218c-4.4541,4.28725 -4.9906,9.03165 -1.45637,12.68251c3.40905,3.52156 8.04567,3.3781 12.37291,-0.69525c8.3701,-7.879 17.94172,-13.74764 29.05577,-17.89032m106.63838,-27.7775c-7.1692,0.42975 -11.20808,5.79385 -8.53473,11.44327c1.66499,3.5185 4.53699,5.26187 8.451,4.77364c3.91372,-0.48816 6.41344,-2.9189 6.99945,-6.70337c0.73964,-4.77648 -1.61302,-7.91962 -6.91572,-9.51354z" fill="#D3D04A"/>
  <path id="svg_3" d="m875.68984,86.22222c-0.08905,10.32283 -0.01575,20.15111 -0.34607,29.96582c-0.13446,3.99542 -2.39197,6.59152 -6.73572,7.29398c-4.13208,0.66821 -7.45892,-0.28841 -9.16638,-4.11185c-0.89856,-2.01203 -0.89569,-4.53011 -0.90235,-6.82085c-0.0617,-21.15788 -0.03643,-42.31601 -0.03643,-63.47407c0,-1.79568 0.00006,-3.59135 0.00006,-5.35069c-62.84822,-0.05327 -0.16716,0.3029 -62.81311,-0.02892c0,1.60216 -0.00006,3.38571 -0.00006,5.16927c-0.00007,21.49127 -0.0011,42.98252 0.00073,64.47378c0.00036,4.36176 -0.49439,8.58093 -5.54926,9.9718c-6.42315,1.76737 -11.61871,-1.33058 -11.54498,-8.72058c0.21777,-21.82227 0.07605,-43.64813 0.07501,-65.47258c-0.00006,-1.80296 0,-3.60592 0,-6.0492c-7.6084,0 -14.87463,0.13319 -22.13385,-0.03642c-7.68316,-0.17952 -10.66919,-3.49813 -9.90582,-10.3755c0.40216,-3.623 2.31317,-5.80366 5.83582,-6.44457c1.953,-0.35536 3.96618,-0.52513 5.95275,-0.52906c19.15882,-0.0379 38.31904,-0.14055 57.47541,0.07853c13.88189,-0.08388 16.90551,0.09601 19.94812,0.06117c20.82184,-0.2384 41.64868,-0.24634 62.47156,-0.06129c6.52288,0.05796 9.11791,2.66021 9.34454,7.93495c0.26825,6.24672 -2.63812,9.23176 -9.45569,9.34642c-7.30066,0.12279 -14.60492,0.02769 -22.51428,0.02769c0,14.44829 0,28.55023 0,43.15217z" fill="#D0CE49"/>
  <path id="svg_4" d="m298.96067,68.17985c-1.44934,-1.99685 -2.69696,-3.69766 -4.59555,-6.28588c-0.13855,2.43325 -0.28449,3.81815 -0.28595,5.2032c-0.01682,15.65917 0.00363,31.31838 -0.02173,46.97751c-0.00733,4.51018 -1.22675,8.26018 -6.3486,9.34926c-5.82474,1.2385 -9.8479,-1.52052 -10.66224,-7.39935c-0.15914,-1.14909 -0.16186,-2.32598 -0.16226,-3.49005c-0.00857,-25.15464 -0.03134,-50.30932 0.00809,-75.4639c0.01233,-7.86427 3.3176,-12.28446 9.30521,-11.11263c3.29824,0.6455 6.89602,3.36073 8.93582,6.1744c6.62665,9.14083 12.58462,18.76565 18.82531,28.1874c2.82599,4.26651 5.71143,8.49364 8.96149,13.32012c5.47302,-8.18726 10.67014,-15.94958 15.85422,-23.72061c4.03302,-6.04553 7.89612,-12.2131 12.15347,-18.09577c1.58158,-2.1854 3.77951,-4.51225 6.19928,-5.39316c7.224,-2.62994 11.15277,0.48657 11.26685,8.87771c0.1947,14.32386 0.05957,28.65223 0.06109,42.97869c0.00129,11.82769 0.0351,23.65551 -0.01425,35.48298c-0.02734,6.55633 -2.83722,9.76643 -8.50867,9.96283c-5.29721,0.18341 -8.51727,-3.31571 -8.56829,-9.90183c-0.11618,-14.99194 -0.03977,-29.98538 -0.0416,-44.9782c-0.00021,-1.75925 -0.00006,-3.51849 -0.00006,-5.27773c-0.38153,-0.13321 -0.76306,-0.26641 -1.14459,-0.39961c-4.39786,6.46221 -8.7731,12.93997 -13.20325,19.37997c-2.15674,3.13521 -4.20474,6.38127 -6.67422,9.25757c-4.70319,5.47802 -11.38642,5.18864 -15.59226,-0.70363c-5.3165,-7.44832 -10.37555,-15.0804 -15.74731,-22.92929z" fill="#CFCD49"/>
  <path id="svg_5" d="m580.97519,42.10554c7.0044,10.51152 13.81305,20.72044 20.99652,31.49138c2.27326,-3.32847 4.32648,-6.26775 6.31104,-9.2527c7.17078,-10.78538 14.30255,-21.59672 21.49463,-32.36786c0.91083,-1.36403 1.86169,-3.22639 3.19415,-3.67857c3.11963,-1.05866 6.73212,-2.41206 9.66119,-1.68826c2.04871,0.50627 3.43824,4.16754 4.83124,6.58721c0.51837,0.90054 0.2677,2.27757 0.26819,3.43736c0.01135,25.14988 0.03235,50.29979 -0.00537,75.44963c-0.01184,7.87195 -2.237,10.94614 -8.04425,11.52638c-4.83508,0.48313 -8.24683,-1.81457 -8.82434,-6.62994c-0.53253,-4.43987 -0.49561,-8.96086 -0.51532,-13.44698c-0.05841,-13.28617 -0.02088,-26.57278 -1.13507,-40.35437c-5.76471,8.51123 -11.40271,17.11292 -17.37207,25.47808c-1.76715,2.47639 -4.12982,5.13278 -6.81879,6.20797c-4.29028,1.7155 -8.4754,0.53957 -11.32721,-3.69207c-5.39166,-8.00045 -10.8551,-15.95259 -16.30481,-23.91381c-1.07086,-1.56449 -2.21454,-3.07917 -4.31591,-4.20594c0,12.41125 0.00073,24.82249 -0.00037,37.23374c-0.00043,4.8301 0.09064,9.66263 -0.03247,14.48966c-0.14704,5.76787 -3.23682,8.94652 -8.46546,8.97324c-5.10559,0.02609 -8.35614,-3.23116 -8.49157,-8.9775c-0.1648,-6.99147 -0.04206,-13.98974 -0.04224,-20.98507c-0.00043,-18.98734 0.02716,-37.97474 -0.01977,-56.96195c-0.0113,-4.56827 0.50531,-8.88666 5.55554,-10.55585c5.14801,-1.70153 9.0769,0.57373 12.01263,4.72773c2.49646,3.53241 4.80335,7.19878 7.38989,11.10849z" fill="#CFCD49"/>
  <path id="svg_6" d="m678.08854,120.1169c-9.41767,-4.74527 -13.7193,-12.84965 -14.14295,-22.30647c-0.68414,-15.27255 -0.62988,-30.62156 0.03436,-45.8982c0.59113,-13.59322 8.18293,-23.03054 21.60712,-24.73203c12.54596,-1.59018 25.53858,-1.28281 38.1723,-0.09055c12.28754,1.15962 20.47284,9.58901 21.32813,21.63087c1.23108,17.33378 1.10687,34.878 -0.03058,52.22803c-0.84003,12.81385 -9.97992,20.69826 -22.26862,21.77471c-13.12384,1.14961 -26.47845,-0.25484 -39.72668,-0.70844c-1.56055,-0.0534 -3.08557,-1.14348 -4.97308,-1.89792m22.32647,-13.4727c5.65283,-0.09639 11.31171,-0.06048 16.95691,-0.32167c7.5694,-0.35019 11.37665,-3.90196 11.52716,-11.46443c0.26477,-13.29688 0.28266,-26.60606 0.03186,-39.90308c-0.15002,-7.95238 -3.69958,-11.45198 -11.7008,-11.7687c-8.13086,-0.32183 -16.2865,-0.23273 -24.42578,-0.06253c-8.10498,0.16948 -11.62391,3.38008 -11.92273,11.46054c-0.41175,11.13337 -0.43433,22.28669 -0.38227,33.43034c0.07593,16.23086 2.45795,18.48102 19.91565,18.62953z" fill="#CDCB49"/>
  <path id="svg_7" d="m1061.71042,50.10712c3.68238,-16.15491 12.06726,-23.39773 28.15064,-24.00756c8.79077,-0.33331 17.62903,-0.44497 26.40405,0.06408c15.68262,0.90977 25.69592,9.03429 26.99463,24.66973c1.35596,16.3272 1.02319,32.94767 -0.31458,49.29728c-1.07519,13.13848 -9.53466,21.28324 -22.6903,22.66854c-11.65467,1.22726 -23.6587,1.29663 -35.29615,-0.0114c-14.98645,-1.68447 -23.19726,-11.88727 -23.75524,-28.38855c-0.49414,-14.60695 0.19958,-29.25405 0.50695,-44.29212m21.60816,54.50719c2.39978,0.58475 4.78808,1.61192 7.20129,1.67357c8.14624,0.20808 16.30737,0.26932 24.45117,0.0135c7.82141,-0.24572 11.26746,-3.05214 11.54908,-10.78199c0.50268,-13.80109 0.46814,-27.64098 0.0708,-41.44773c-0.20716,-7.19634 -3.92481,-10.50746 -11.09668,-10.8006c-8.30433,-0.33944 -16.63196,-0.28199 -24.94605,-0.16194c-7.96692,0.11505 -11.76526,3.53996 -12.02124,11.46628c-0.40271,12.47756 -0.69458,24.98523 -0.22241,37.44943c0.15527,4.09821 2.8252,8.10115 5.01404,12.58948z" fill="#CFCE49"/>
  <path id="svg_8" d="m511.72324,25.6587c8.75983,-0.06381 16.74884,0.8622 23.32007,6.66969c8.73901,7.72332 9.12341,18.03639 8.56341,28.48037c-0.62957,11.74058 -5.77416,20.62505 -17.77502,24.90157c5.13428,8.62172 10.02094,16.89986 14.98676,25.13027c1.93261,3.2032 2.76397,6.36061 0.61682,9.79707c-3.67054,5.87465 -10.78608,6.09966 -14.68933,0.03726c-5.93445,-9.21727 -11.75422,-18.53892 -16.99622,-28.15764c-2.35284,-4.31732 -5.00269,-6.13395 -9.76532,-5.50186c-2.44482,0.32448 -4.96826,0.05693 -8.2453,0.05693c0,1.9784 0.00311,3.72611 -0.00055,5.47382c-0.01605,7.66191 0.16608,15.33131 -0.11938,22.98322c-0.20246,5.42616 -3.82355,8.35353 -9.27021,8.21945c-4.40832,-0.10852 -7.53961,-3.19832 -7.55737,-8.17034c-0.09686,-27.15135 -0.12109,-54.30343 -0.01288,-81.45463c0.02271,-5.70605 3.13104,-8.33338 9.48126,-8.42677c8.99329,-0.13228 17.98987,-0.03676 27.46326,-0.03841m-19.98853,22.1293c0,7.25295 0,14.50589 0,21.5021c0.8451,0.39287 1.13471,0.64355 1.42646,0.64606c6.30536,0.05413 12.6112,0.12924 18.9165,0.10202c12.34094,-0.05328 15.96271,-4.19892 14.51117,-16.51866c-0.09686,-0.82211 -0.39392,-1.62923 -0.4223,-2.44938c-0.18549,-5.35748 -3.30835,-7.79008 -8.28845,-7.95144c-7.62421,-0.24703 -15.26105,-0.11558 -22.88397,-0.38604c-3.29493,-0.11692 -3.43311,1.70844 -3.25941,5.05534z" fill="#D0CE49"/>
  <path id="svg_9" d="m935.00742,42.96767c-0.85107,7.33573 -1.21966,14.5649 -1.6333,22.67694c6.39477,0 12.1358,-0.01954 17.87653,0.00909c2.49517,0.01244 5.01312,-0.06872 7.47973,0.23074c5.06317,0.61471 7.87885,3.8338 7.79389,8.57043c-0.08399,4.68067 -2.99158,8.11466 -8.09229,8.44823c-6.13977,0.40152 -12.32239,0.15014 -18.48645,0.17709c-1.81653,0.00794 -3.63306,0.00122 -5.82092,0.00122c0,7.82181 0,15.36647 0,23.32413c1.85058,0.08195 3.62414,0.22473 5.39801,0.22862c11.49762,0.02526 22.99682,-0.09099 34.49212,0.07498c5.26246,0.07598 8.4889,3.45853 8.693,8.39951c0.18872,4.56318 -2.84156,8.31728 -7.93982,8.40248c-16.98718,0.2839 -33.98224,0.2995 -50.97131,0.12544c-4.14209,-0.04243 -6.55811,-2.87683 -6.96241,-7.11245c-0.11053,-1.15816 -0.12652,-2.32866 -0.12689,-3.49353c-0.00671,-25.49482 -0.01904,-50.98964 0.00299,-76.48443c0.00708,-8.25169 2.50708,-10.8525 10.61713,-10.88349c15.32995,-0.05856 30.66638,-0.23563 45.98504,0.18575c2.81861,0.07753 6.75,2.10387 8.01441,4.41086c1.27514,2.32663 0.99512,7.08118 -0.65821,9.01972c-1.86889,2.19132 -5.99841,3.26665 -9.1925,3.37115c-11.98492,0.39211 -23.98932,0.19023 -36.46875,0.31752z" fill="#CDCB49"/>
  <path id="svg_10" d="m410.49717,36.75708c2.25448,-4.52442 3.10461,-9.75195 9.02099,-10.7072c5.26508,-0.85007 8.95523,0.98463 11.11231,6.13128c7.11166,16.96806 14.11609,33.98112 21.14508,50.98379c3.73608,9.03723 7.41967,18.09626 11.16095,27.13134c3.00152,7.24844 0.09491,12.61048 -7.19983,13.31364c-4.66974,0.45012 -6.99637,-2.40372 -8.63108,-6.08465c-1.61154,-3.62879 -3.26379,-7.2797 -4.38909,-11.07195c-0.96875,-3.26457 -2.53922,-4.40363 -6.01761,-4.31386c-9.98703,0.25777 -19.99045,0.27925 -29.97574,-0.01016c-3.54889,-0.10288 -5.07868,1.35527 -6.12668,4.33968c-1.3183,3.75422 -2.8389,7.43791 -4.29303,11.14384c-2.06799,5.27039 -5.96939,7.20973 -11.04294,5.51216c-4.92126,-1.64664 -7.06491,-5.74412 -5.0087,-11.1826c4.40211,-11.64279 9.17786,-23.14487 13.8393,-34.68892c5.40576,-13.38747 10.85312,-26.75813 16.40607,-40.49639m0.31778,44.19286c-0.37259,1.29532 -0.74518,2.59064 -1.15995,4.03255c8.37891,0 16.08081,0 24.26001,0c-4.20608,-10.14298 -8.25824,-19.9147 -12.67434,-30.56409c-3.62525,9.20552 -6.88746,17.48923 -10.42572,26.53154z" fill="#D0CE49"/>
  <path id="svg_11" d="m602.69474,175.18566c0,-2.96361 0,-5.42122 0,-8.88068c-7.24903,2.46941 -13.62159,-1.40645 -20.69184,-0.17579c-6.91064,1.20288 -14.19452,0.2617 -21.61267,0.2617c0,4.09769 0,7.31882 0,10.98357c3.87079,0 7.6781,-0.02704 11.48493,0.00786c3.57251,0.03274 5.7409,1.92182 5.75079,5.43544c0.01044,3.6838 -2.552,5.16787 -5.95099,5.24546c-3.64703,0.08325 -7.29742,0.01877 -11.26764,0.01877c0,3.681 0,7.08119 0,11.11975c6.1015,0 12.34986,0.11649 18.59125,-0.04165c4.05017,-0.10257 7.242,1.04748 7.21771,5.51062c-0.02472,4.5455 -3.45825,5.47274 -7.36975,5.43313c-7.16162,-0.0726 -14.32519,0.04206 -21.48657,-0.04016c-6.20911,-0.07126 -7.89349,-1.51022 -7.96295,-7.52206c-0.15381,-13.32352 -0.07282,-26.65003 -0.04206,-39.97522c0.0102,-4.40953 2.01203,-6.69178 6.73304,-6.58582c7.82464,0.17563 15.69098,-0.39139 23.47064,0.22571c4.14764,0.32899 8.09167,0.26108 12.23077,0.02843c10.79267,-0.60657 21.6424,-0.1615 32.46881,-0.22704c3.6753,-0.02225 6.25208,1.12518 6.30823,5.22446c0.0553,4.03363 -2.46588,5.47287 -6.09503,5.5153c-3.46387,0.04051 -6.92865,0.00875 -11.03528,0.00875c0,10.00691 0.00458,19.60412 -0.00281,29.20135c-0.00219,2.83078 0.1178,5.67356 -0.09887,8.48923c-0.26319,3.42004 -2.01062,5.6105 -5.74933,5.39416c-3.50635,-0.20294 -4.87653,-2.38147 -4.87848,-5.66644c-0.00556,-9.49428 -0.00818,-18.98855 -0.0119,-28.98883z" fill="#F5F5F6"/>
  <path id="svg_12" d="m980.22263,171.44927c2.8783,-4.31468 5.19592,-8.65445 8.39197,-12.20308c1.56897,-1.74202 4.82727,-2.80279 7.20202,-2.62053c1.16919,0.08977 2.9115,3.69123 2.95154,5.73186c0.26441,13.49184 0.10364,26.99149 0.15808,40.48827c0.01514,3.75009 -0.98803,6.82553 -5.24487,6.93676c-4.65149,0.12149 -5.62817,-3.2778 -5.64062,-7.11334c-0.02381,-7.41553 -0.00696,-14.83121 -0.94483,-22.54553c-2.35669,3.43465 -4.64038,6.92215 -7.08606,10.29223c-4.26794,5.8812 -8.42676,5.85167 -12.52807,-0.02699c-2.43738,-3.49379 -4.8108,-7.03219 -8.41565,-10.26051c0,8.01207 0.0982,16.02577 -0.03669,24.03558c-0.0816,4.84748 -3.6734,7.23407 -7.56488,4.96808c-1.30456,-0.75961 -2.64135,-2.76163 -2.66729,-4.21881c-0.25769,-14.48076 -0.35633,-28.9679 -0.15808,-43.44856c0.0238,-1.7347 1.87255,-4.64624 3.23864,-4.87879c2.04444,-0.348 5.16413,0.5394 6.49414,2.06377c3.47473,3.98253 6.26191,8.57173 9.25373,12.96634c1.95495,2.87147 3.78869,5.82553 6.06994,9.35046c2.27027,-3.30639 4.29932,-6.26136 6.52698,-9.51721z" fill="#F7F7F8"/>
  <path id="svg_13" d="m666.75107,189.28914c-0.00189,5.15192 -0.02301,9.8147 0.00037,14.4773c0.0191,3.80301 -1.86719,6.22855 -5.61115,6.10617c-3.47943,-0.11374 -5.11395,-2.63788 -5.11346,-6.11578c0.00214,-13.82161 -0.14105,-27.64629 0.15723,-41.46146c0.0437,-2.02453 2.02117,-5.51945 3.38708,-5.66432c2.29852,-0.24378 5.72852,0.96918 7.09283,2.77225c5.09272,6.73037 9.53962,13.94946 14.60657,21.55198c4.71472,-6.98034 9.0503,-13.48333 13.4925,-19.91264c1.01281,-1.46577 2.1892,-2.98917 3.6455,-3.94472c3.81092,-2.50056 7.75574,-0.82112 7.83856,3.68041c0.27283,14.81407 0.22187,29.6365 0.0835,44.45375c-0.02875,3.07946 -2.32727,4.79251 -5.38049,4.652c-3.25995,-0.15002 -5.13294,-1.90484 -5.10321,-5.45117c0.06903,-8.23115 0.02203,-16.46328 0.02203,-26.11616c-3.28503,4.81196 -5.73401,8.45204 -8.23742,12.05426c-4.029,5.79757 -8.35169,5.8193 -12.49866,0.0769c-2.42853,-3.36282 -4.82178,-6.7511 -7.24231,-10.11976c-0.06391,-0.0889 -0.25879,-0.08367 -1.13947,-0.33829c0,3.05153 0,5.9308 0,9.29928z" fill="#F4F5F5"/>
  <path id="svg_14" d="m1066.01877,168.02703c5.19812,6.66022 10.15393,13.05629 15.10974,19.45236c0.41028,-0.05597 0.82044,-0.11194 1.2306,-0.16791c0,-3.82429 -0.00025,-7.64859 0,-11.47288c0.00036,-4.49472 -0.03431,-8.98979 0.01281,-13.48403c0.03736,-3.57472 1.27722,-6.33104 5.40796,-6.2631c4.0221,0.06614 5.31934,2.62376 5.30799,6.31077c-0.042,13.48401 0.00036,26.96828 -0.03125,40.45234c-0.00611,2.61358 0.42065,6.12863 -3.08655,6.32189c-2.51831,0.13883 -6.02845,-0.92184 -7.568,-2.74078c-6.53174,-7.71716 -12.48449,-15.9236 -18.67065,-23.93455c-0.98474,-1.27524 -2.0802,-2.46491 -4.1217,-4.86818c-0.26673,2.58195 -0.51136,3.89015 -0.51868,5.19969c-0.03931,6.99154 -0.12866,13.98587 0.02539,20.97423c0.07983,3.62997 -1.35449,6.04831 -4.95288,6.0621c-3.6676,0.0141 -5.54517,-2.13843 -5.50745,-6.13226c0.13074,-13.81583 -0.06408,-27.63572 0.18042,-41.44848c0.03479,-1.97189 1.43701,-5.1298 2.86914,-5.56669c1.87598,-0.57225 4.98389,0.38801 6.53821,1.80884c2.90064,2.65115 5.06299,6.10981 7.7749,9.49664z" fill="#F9F9F9"/>
  <path id="svg_15" d="m792.50498,186.50436c0.9397,-0.34247 2.10516,-1.00307 2.11676,-1.68338c0.13092,-7.66375 -0.01502,-15.33234 0.12366,-22.99584c0.0816,-4.51019 3.12512,-7.0838 6.68042,-5.3873c1.65191,0.78829 3.45007,3.33638 3.48517,5.12012c0.28198,14.32651 0.26562,28.66286 0.01696,42.99058c-0.02935,1.68973 -2.06659,4.77146 -3.0805,4.73359c-2.44977,-0.09153 -5.65723,-0.96885 -7.12458,-2.72681c-7.2351,-8.66795 -14.00219,-17.72652 -20.93884,-26.64383c-0.45953,-0.59068 -0.95526,-1.15317 -2.36481,-2.84737c0,8.27443 0.00538,15.17142 -0.00354,22.06841c-0.00231,1.83209 0.07624,3.67633 -0.10168,5.4935c-0.3158,3.22601 -2.02356,5.35034 -5.43378,5.2363c-3.35925,-0.11234 -5.12841,-2.1399 -5.14843,-5.51053c-0.04145,-6.99912 -0.02271,-13.9986 -0.02527,-20.99793c-0.00244,-6.49942 -0.01288,-12.99887 0.00525,-19.49824c0.00836,-2.99965 -0.3039,-6.86598 3.42529,-7.25055c2.40137,-0.24765 5.86035,1.36259 7.47082,3.28912c7.13385,8.53395 13.77045,17.48363 20.8971,26.61016z" fill="#F9F9F9"/>
  <path id="svg_16" d="m1028.0416,63.22219c0.00037,-9.48306 -0.08301,-18.46716 0.02881,-27.44883c0.08398,-6.75654 2.44421,-9.54268 7.91333,-9.84351c5.67712,-0.31229 8.88391,2.35976 9.00928,8.05337c0.18676,8.47991 0.06848,16.96666 0.07019,25.4505c0.00366,18.29883 0.03088,36.59772 -0.0138,54.89644c-0.01806,7.43051 -3.47693,10.25511 -10.70947,9.08257c-5.44507,-0.88276 -6.20264,-4.99507 -6.24976,-9.28606c-0.13317,-12.14232 -0.04797,-24.28702 -0.04858,-36.43079c-0.00024,-4.6579 0,-9.31578 0,-14.47369z" fill="#D0CF49"/>
  <path id="svg_17" d="m875.09202,166.76357c-5.69111,-0.28209 -7.51215,2.47035 -7.38306,7.35808c0.16266,6.16037 0.09125,12.3279 0.06048,18.49205c-0.02288,4.57726 2.25,6.67459 6.75727,6.60007c3.16479,-0.05234 6.33136,0.01364 9.49682,-0.01282c6.07807,-0.05078 6.49128,-0.51535 6.46515,-7.42354c-1.23053,-0.12668 -2.49847,-0.26573 -3.76825,-0.38624c-3.24536,-0.30811 -5.16888,-2.40087 -4.46881,-5.29371c0.46521,-1.92263 2.59912,-4.37089 4.42554,-4.82785c3.13196,-0.78357 6.75091,-0.75926 9.88544,0.03313c1.8764,0.47432 3.79064,2.80544 4.63861,4.75771c0.79431,1.82893 0.23803,4.25854 0.22119,6.4234c-0.08887,11.40313 -4.13202,16.20648 -15.41675,17.32602c-4.9245,0.48858 -10.00324,0.28753 -14.92932,-0.29697c-8.53015,-1.01215 -13.49664,-6.46674 -13.96356,-15.44624c-0.38855,-7.47315 -0.42273,-15.00274 0.01025,-22.47113c0.56085,-9.67214 6.30982,-15.04061 16.06342,-15.4518c5.14929,-0.21709 10.35333,-0.28888 15.47235,0.2019c7.48303,0.71746 12.75964,6.68418 12.27905,13.78609c-0.11688,1.72743 -1.81512,4.5965 -3.02026,4.72377c-2.06995,0.21861 -5.98902,-0.97241 -6.22687,-2.15564c-1.39246,-6.92683 -6.33631,-6.05412 -11.12775,-5.94459c-1.66534,0.03805 -3.33221,0.00637 -5.47094,0.00831z" fill="#F7F7F7"/>
  <path id="svg_18" d="m450.85892,200.71819c0.39234,-0.7514 0.76679,-1.51279 1.18036,-2.25229c1.17047,-2.09286 1.87622,-5.15353 3.65338,-6.02819c2.47632,-1.21883 5.65912,-0.61655 6.48877,3.18634c0.06909,0.31689 0.2002,0.67867 0.42328,0.89501c5.64203,5.47074 12.53754,1.85895 18.83063,2.22797c0.93988,0.05509 2.74817,-3.92064 3.03528,-6.1743c0.38,-2.98283 -1.3819,-4.87558 -4.82251,-4.84413c-4.31629,0.0395 -8.6576,0.02311 -12.94831,-0.38622c-8.30133,-0.79194 -12.98974,-6.76806 -12.82409,-15.92c0.16601,-9.17304 4.62793,-14.74523 12.99768,-15.10891c6.07519,-0.26396 12.25183,0.07646 18.27691,0.91308c5.23877,0.72742 7.75714,5.02129 8.45527,9.82749c0.25604,1.76266 -1.1673,4.81157 -2.65003,5.50258c-1.60455,0.74778 -5.6983,-0.03438 -6.06738,-1.08051c-2.0257,-5.73999 -6.51477,-4.65285 -10.70172,-4.70781c-1.66382,-0.02185 -3.32929,0.04531 -4.99231,0.00412c-3.40125,-0.0842 -4.56879,1.517 -4.53723,4.90372c0.03234,3.46922 1.05664,5.38229 4.76727,5.36795c4.15771,-0.01608 8.3363,-0.13933 12.46972,0.21039c8.17603,0.69175 12.92737,5.90227 13.1847,14.03637c0.36609,11.57148 -2.78119,16.79242 -11.84857,18.05228c-5.54651,0.77066 -11.25409,0.41278 -16.89032,0.49951c-7.15985,0.11023 -11.40064,-4.21237 -15.09229,-9.46966c-0.34521,0.37588 -0.38852,0.34518 -0.38849,0.34521z" fill="#F6F6F7"/>
  <path id="svg_19" d="m540.9769,171.14159c-4.92871,3.133 -6.79284,2.59003 -9.55456,-1.53561c-0.90888,-1.35773 -2.93512,-2.4863 -4.58918,-2.71459c-3.10333,-0.42828 -6.3153,0.01245 -9.4682,-0.16119c-3.45977,-0.19057 -4.91314,1.46326 -4.86615,4.70363c0.04426,3.05244 0.67383,5.63544 4.6156,5.60463c4.15772,-0.0325 8.33314,-0.11539 12.47169,0.2025c8.35815,0.642 12.96551,5.69325 13.43456,14.34657c0.56641,10.4482 -3.08123,16.65801 -11.74768,17.68544c-6.84399,0.81137 -13.90637,0.4252 -20.81353,-0.14065c-5.78833,-0.47419 -8.9278,-4.69342 -10.38196,-10.03153c-0.83331,-3.05882 -0.00488,-5.83748 3.31396,-6.78375c2.90662,-0.82878 5.2417,-0.18567 6.85755,3.12742c0.84076,1.72365 3.4378,3.29024 5.44384,3.59481c3.74189,0.56814 7.63324,0.09314 11.45936,0.18246c3.88531,0.09073 5.29846,-1.83737 5.23419,-5.54826c-0.06275,-3.62084 -0.81299,-6.09975 -5.26544,-5.97121c-4.47388,0.12912 -8.9914,0.00505 -13.4383,-0.48009c-7.07416,-0.77179 -11.44568,-6.04911 -11.81128,-13.68603c-0.4527,-9.45824 2.94056,-15.94717 10.35608,-16.74266c7.12122,-0.7639 14.59009,-0.47904 21.62671,0.83789c5.86218,1.09711 8.36713,6.97204 7.12274,13.51022z" fill="#F6F6F7"/>
  <path id="svg_20" d="m1035.4011,156.03023c1.77685,0.05854 3.49536,-0.38354 4.35376,0.28273c1.63928,1.27259 4.11145,3.4567 3.83679,4.75396c-0.43103,2.03511 -2.65613,4.9169 -4.46936,5.19833c-5.05054,0.78392 -10.28003,0.42238 -15.43897,0.4968c-1.80078,0.02598 -3.60229,0.00415 -5.66784,0.00415c0,3.58781 0,6.83279 0,10.60269c3.85852,0 7.64026,-0.0434 11.42065,0.01266c3.52466,0.05228 5.67041,1.65853 5.6344,5.43074c-0.03613,3.789 -2.22192,5.27361 -5.75647,5.26915c-3.64551,-0.00457 -7.29089,-0.00102 -11.25012,-0.00102c0,3.64986 0,7.06979 0,11.123c5.92651,0 12.03259,-0.01221 18.13867,0.00458c3.66797,0.0101 7.29041,0.26105 7.60742,5.12112c0.24695,3.78934 -2.3667,5.71979 -7.58667,5.74347c-7.33264,0.03324 -14.66613,0.07117 -21.99792,-0.01321c-5.33301,-0.06137 -7.16358,-1.91187 -7.18091,-7.20014c-0.0437,-13.33207 -0.05627,-26.66461 0.00647,-39.99655c0.02466,-5.2547 1.58911,-6.76198 6.90515,-6.81466c6.99878,-0.06939 13.99878,-0.01755 21.44495,-0.0178z" fill="#F6F6F6"/>
  <path id="svg_21" d="m928.85856,210.08101c-5.49109,-0.00183 -10.48804,0.01511 -15.48481,-0.01116c-4.30566,-0.02268 -6.3468,-2.28263 -6.34503,-6.5272c0.0058,-13.82466 0.03015,-27.64942 -0.01306,-41.47395c-0.01306,-4.19568 2.11664,-6.03044 6.12781,-6.03076c8.328,-0.00069 16.65607,0.02585 24.98401,0.00619c3.36322,-0.00793 5.39428,1.52922 5.64013,4.93021c0.25403,3.51421 -1.73028,5.34706 -5.05658,5.41394c-6.79425,0.13655 -13.59308,0.04093 -20.67504,0.04093c0,3.86822 0,7.11444 0,10.93905c3.77093,0 7.54504,-0.03045 11.31848,0.00887c3.50671,0.03654 5.7077,1.56589 5.71649,5.34866c0.00873,3.76552 -2.10242,5.34657 -5.66559,5.35298c-3.65241,0.00658 -7.30481,0.00144 -11.30688,0.00144c0,3.57864 0,6.99344 0,11.12327c5.81695,0 11.90582,-0.08987 17.98931,0.05234c1.94031,0.04535 4.32325,0.14935 5.66504,1.24942c1.24109,1.01752 2.34412,3.90402 1.74945,5.07257c-0.9588,1.88422 -3.16754,3.78357 -5.20239,4.3111c-2.81012,0.72854 -5.94903,0.18872 -9.44134,0.1921z" fill="#F6F6F6"/>
  <path id="svg_22" d="m711.06919,201.27978c5.62567,-13.66903 10.94995,-27.05089 16.72626,-40.23471c0.92748,-2.11704 4.06066,-4.83948 5.8399,-4.61637c2.25751,0.28308 5.07214,2.89211 6.08679,5.18759c5.46637,12.36736 10.45954,24.9442 15.5857,37.46116c0.6253,1.52694 1.74224,3.27639 1.43725,4.65936c-0.43658,1.97955 -1.65204,4.85174 -3.12244,5.26815c-1.81768,0.51474 -4.23889,-1.09106 -6.39233,-1.80188c-0.11908,-0.0393 -0.18121,-0.26907 -0.25787,-0.41641c-1.42304,-2.73462 -2.45636,-7.4649 -4.33881,-7.83099c-5.61249,-1.09157 -11.56036,-0.55908 -17.37115,-0.41571c-0.80213,0.01977 -1.77552,1.30698 -2.30433,2.21915c-0.73767,1.27249 -1.07531,2.76965 -1.68365,4.12597c-1.33044,2.96622 -2.81177,5.87805 -6.90295,4.68598c-4.23957,-1.23535 -4.52729,-4.3226 -3.30237,-8.29129m21.81256,-25.58525c-1.57849,3.89781 -3.15704,7.79562 -4.80225,11.85809c3.91602,0 7.15814,0 11.29529,0c-2.16168,-4.50099 -4.05365,-8.44042 -6.49304,-11.85809z" fill="#F9F9F9"/>
  <path id="svg_23" d="m835.88376,157.19964c4.49768,9.91882 8.78192,19.56767 12.96588,29.25982c2.16053,5.00486 4.04688,10.12877 6.23774,15.11957c1.58459,3.60962 0.6466,6.21332 -2.79291,7.77771c-3.57453,1.62582 -5.56513,-0.63461 -7.07337,-3.45816c-0.54248,-1.01575 -0.8742,-2.15634 -1.21045,-3.26764c-0.92651,-3.06137 -2.62548,-4.82626 -6.14593,-4.26849c-1.62402,0.25729 -3.33118,0.15344 -4.9859,0.02438c-6.33942,-0.49446 -12.17572,-0.72922 -13.52667,7.90933c-0.4477,2.86252 -3.62818,4.3451 -6.83509,3.06766c-3.11444,-1.2406 -4.22015,-3.62949 -2.92517,-6.84659c5.69031,-14.13704 11.34607,-28.28849 17.14954,-42.37907c1.68701,-4.09601 4.83429,-5.1626 9.14233,-2.93852m-0.65985,24.17158c-0.92224,-2.22845 -1.84448,-4.45691 -3.06732,-7.41166c-1.92224,5.02484 -3.51898,9.19863 -5.15143,13.46597c3.99323,0 7.31146,0 10.87464,0c-0.88965,-2.08847 -1.59253,-3.73844 -2.65589,-6.05431z" fill="#F8F9F9"/>
  <path id="svg_24" d="m450.81382,200.32598c0.04507,0.39218 0.08838,0.42288 0.06958,0.41479c1.82562,3.47187 2.36901,6.66666 -2.13401,8.53443c-4.28411,1.77698 -6.63006,-0.99585 -7.37185,-4.31131c-1.38239,-6.1785 -5.21195,-7.11951 -10.58115,-6.62741c-3.79593,0.34787 -7.64947,0.06732 -11.63382,0.06732c-1.07846,2.53302 -2.09155,4.97708 -3.15658,7.39825c-1.45377,3.30481 -3.73267,5.02689 -7.42261,3.48697c-3.70447,-1.54596 -3.49149,-4.51541 -2.33982,-7.52975c2.13019,-5.57567 4.41395,-11.09305 6.66273,-16.6229c3.372,-8.29187 6.57632,-16.66188 10.30117,-24.79286c0.85184,-1.85953 3.61524,-4.08876 5.35523,-3.97378c2.07214,0.13691 4.95834,2.19177 5.81708,4.15007c5.71313,13.02832 10.97821,26.25308 16.43405,39.80618m-23.99439,-21.5715c-1.13483,2.80189 -2.26962,5.60377 -3.57233,8.82016c3.9152,0 7.12403,0 10.99933,0c-1.95504,-4.58466 -3.71875,-8.72063 -5.76281,-13.51409c-0.65979,1.85427 -1.04273,2.93045 -1.66419,4.69393z" fill="#F9F9FA"/>
  <path id="svg_25" d="m1113.02842,203.70788c-0.00074,-12.40087 -0.00074,-24.35712 -0.00074,-36.94884c-4.05554,0 -7.81042,0.02563 -11.56457,-0.00745c-3.53247,-0.03113 -5.66724,-1.53686 -5.59387,-5.38286c0.07238,-3.79617 2.20385,-5.30902 5.73669,-5.31214c11.14966,-0.00986 22.29932,-0.01349 33.44898,-0.00438c3.50866,0.00288 5.81421,1.49343 5.8164,5.27021c0.00232,3.74228 -2.28967,5.30575 -5.76819,5.36872c-3.62231,0.06556 -7.24695,0.01463 -11.3529,0.01463c0,10.7204 0,20.99716 0,31.27394c0,1.66417 -0.04895,3.33003 0.00928,4.99211c0.12414,3.54499 -0.91761,6.41581 -4.8501,6.88019c-4.03491,0.47656 -5.56091,-2.10074 -5.88098,-6.14413z" fill="#F5F5F6"/>
  <path id="svg_26" d="m303.00635,166.75835c-2.63611,-0.05554 -4.83459,0.11696 -6.95187,-0.22041c-3.1174,-0.4967 -5.01831,-2.70244 -4.00363,-5.66823c0.63891,-1.86748 2.93353,-4.44205 4.55758,-4.49521c11.81592,-0.38685 23.65027,-0.24353 35.47855,-0.19865c3.39587,0.01288 5.07785,2.4768 4.54709,5.22975c-0.36368,1.88614 -2.55289,4.49075 -4.2966,4.8217c-3.84866,0.73042 -7.93152,0.22704 -12.59488,0.22704c0,5.39146 0.00003,10.33003 -0.00003,15.26861c-0.00009,6.99985 -0.06143,14.00043 0.02319,20.99927c0.04871,4.02759 -1.31268,7.13196 -5.68048,7.13416c-4.23996,0.00216 -5.28555,-3.08814 -5.24692,-6.91251c0.10443,-10.33205 0.03565,-20.66586 0.03559,-30.99898c-0.00003,-1.63141 0,-3.2628 0,-5.18651c-2.1084,0 -3.75104,0 -5.86759,-0.00003z" fill="#F7F8F8"/>
  <path id="svg_27" d="m280.24686,208.82171c-0.82471,-1.94608 -1.82138,-3.62213 -1.8378,-5.30777c-0.12939,-13.27902 -0.17908,-26.56159 0.03324,-39.83849c0.03598,-2.24992 0.80755,-5.20573 2.35513,-6.56436c3.21811,-2.82523 8.03348,-0.42552 8.10559,4.02704c0.23382,14.4371 0.25714,28.88093 0.09665,43.31923c-0.05365,4.82882 -2.95233,6.19885 -8.75281,4.36435z" fill="#F4F4F5"/>
  <path id="svg_28" d="m380.41288,187.90606c-0.513,4.44261 -1.82907,7.82286 -6.52155,8.51104c-4.21231,0.61776 -8.39102,0.84795 -11.34381,-2.97695c-2.20789,-2.86001 -2.4592,-10.80254 -0.31915,-13.34264c3.54452,-4.20712 8.604,-3.71634 12.95032,-2.45816c2.07324,0.60016 3.4201,4.09576 4.81872,6.44495c0.53848,0.90454 0.30704,2.26744 0.41547,3.82176z" fill="#F7F7F7"/>
  <path id="svg_29" d="m998.74485,123.52108c-5.59815,-1.24648 -6.30164,-5.29938 -6.40088,-9.62674c-0.08716,-3.79881 0.53796,-8.17905 4.59228,-8.90367c4.07154,-0.72774 9.74463,-0.81085 12.4253,1.49101c2.36242,2.02866 2.20544,7.77536 1.97399,11.81215c-0.21545,3.75696 -3.60998,5.24683 -7.24584,5.40745c-1.6493,0.07287 -3.30701,-0.04669 -5.34485,-0.1802z" fill="#CDCB49"/>
 </g>
</svg>