<svg width="1147" height="221.99999999999997" xmlns="http://www.w3.org/2000/svg" xml:space="preserve" enable-background="new 0 0 1336 346" version="1.1">

 <g>
  <title>Layer 1</title>
  <path id="svg_2" d="m10.82318,24.55552c21.93217,-30.66573 68.08084,-26.06644 85.07286,8.46947c3.07735,6.25468 3.9841,13.60691 5.65736,20.50954c0.76349,3.14956 -0.73759,4.61647 -4.12169,5.30946c-20.59437,4.21722 -40.17357,10.85504 -56.32872,25.09363c-1.24879,1.10063 -2.49566,2.2091 -3.67151,3.3858c-4.20208,4.20512 -4.65013,8.7406 -1.25899,12.30543c3.4085,3.58309 8.10955,3.52295 12.35987,-0.53184c11.25803,-10.7401 24.68926,-17.42693 39.58869,-21.27106c10.62824,-2.74212 21.34617,-5.14486 32.05198,-7.57606c13.64702,-3.09908 22.83472,-11.40122 27.53585,-24.33468c4.02775,-11.08096 7.45043,-22.39188 10.81835,-33.69714c1.14405,-3.84028 2.70957,-6.8463 6.82474,-7.66542c4.41142,-0.87807 7.62876,1.33105 9.39438,5.03461c7.63922,16.02415 20.55014,24.63837 37.14508,30.40607c23.75217,8.25525 24.28754,38.18788 15.41821,51.27272c-4.77551,7.04527 -11.48813,11.68251 -20.1202,10.88623c-8.86951,-0.81818 -14.96082,1.91217 -19.03089,9.79429c-1.33612,2.58757 -3.41086,4.79378 -5.51898,7.68311c2.53558,1.03981 4.4729,1.86061 6.42957,2.63235c12.17318,4.80144 18.979,14.95693 18.68441,27.90236c-0.13601,5.97661 -3.28219,9.23274 -9.30581,9.26883c-12.99405,0.0779 -25.98966,0.10683 -38.98275,-0.02785c-3.23332,-0.03349 -5.51449,0.7556 -7.69691,3.39449c-9.62526,11.6384 -22.1485,18.24518 -36.37688,19.94807c3.33887,6.46798 6.74256,12.81072 9.86383,19.28951c0.75318,1.56335 0.75688,3.57394 0.78592,5.384c0.09171,5.71582 -3.0661,9.09488 -8.8146,9.12052c-16.82564,0.0751 -33.65998,0.3225 -50.47587,-0.09858c-19.93409,-0.4992 -38.33593,-15.23477 -44.11688,-34.257c-1.23781,-4.07303 -3.09717,-8.04373 -5.22235,-11.74451c-6.69902,-11.66565 -11.93,-23.80855 -13.18693,-37.35591c-1.60874,-17.33915 4.43289,-32.36128 14.24027,-46.19243c4.81283,-6.78746 9.80837,-13.44851 14.49621,-20.32028c3.0281,-4.43881 4.03936,-9.3993 2.62015,-14.76588c-1.02811,-3.88768 -3.26894,-6.30201 -7.3957,-5.94797c-4.1085,0.35249 -7.29557,2.26936 -8.13135,6.76273c-0.12121,0.6516 -0.04873,1.34077 -0.18349,1.98806c-0.88788,4.26474 -4.44389,7.08284 -8.56592,6.82506c-4.14329,-0.25912 -7.38009,-3.40324 -7.54091,-7.8677c-0.36653,-10.17579 1.43152,-19.89095 7.0596,-29.01203m171.86354,45.0757c4.44314,0.14929 7.87448,-2.07278 8.27344,-6.20152c0.2677,-2.77068 -1.25458,-6.63067 -3.33634,-8.42463c-1.6925,-1.45854 -6.05765,-1.64419 -8.05023,-0.43603c-2.20071,1.33437 -3.99796,4.80699 -4.26324,7.51555c-0.39783,4.06221 2.61349,6.52858 7.37637,7.54663z" fill="#D3D04A"/>
  <path id="svg_3" d="m560.85927,38.40065c0.28369,-3.41984 0.54126,-6.37994 0.82165,-9.60311c14.78827,0 29.18738,0 43.9812,0c1.52844,15.64033 3.04517,31.16045 4.56189,46.68056c0.21924,0.07811 0.43854,0.15622 0.65784,0.23433c0.97357,-2.9991 2.05554,-5.96798 2.90149,-9.00267c3.11584,-11.1785 6.23626,-22.35718 9.16931,-33.58429c0.86353,-3.30551 2.1181,-4.87046 5.98273,-4.7435c10.27893,0.33769 20.57629,0.11474 31.59527,0.11474c-2.85199,31.77396 -5.6549,63.00147 -8.49194,94.60894c-9.87976,0 -19.57434,0 -29.66272,0c0.99676,-11.93282 1.98291,-23.73804 2.96899,-35.54326c-0.31549,-0.05213 -0.63098,-0.10425 -0.94653,-0.15637c-3.07318,10.77706 -6.27924,21.51921 -9.12707,32.35548c-0.72272,2.75006 -1.63483,3.90387 -4.58368,3.80508c-6.15058,-0.20605 -12.31287,-0.06236 -19.00159,-0.06236c-1.38696,-12.40669 -2.75714,-24.66351 -4.12732,-36.92035c-0.3949,0.00376 -0.7898,0.00751 -1.18469,0.01125c-1.11347,12.14993 -2.22693,24.29985 -3.35981,36.66105c-9.9165,0 -19.51605,0 -29.7517,0c2.5357,-28.26777 5.0531,-56.33177 7.59668,-84.85552z" fill="#D1D07E"/>
  <path id="svg_4" d="m374.00129,123.38519c-9.45077,0 -18.90152,0 -28.77117,0c1.05282,-12.28943 2.06317,-24.08319 3.07351,-35.87697c-0.33969,-0.05893 -0.67938,-0.11784 -1.01907,-0.17677c-2.80493,9.98227 -5.89792,19.89616 -8.2912,29.97616c-1.16736,4.9166 -3.12494,6.8949 -8.34741,6.3233c-5.09784,-0.55795 -10.30454,-0.12133 -15.98877,-0.12133c-1.45044,-12.78485 -2.88239,-25.40659 -4.31433,-38.02832c-0.31955,0.00779 -0.6391,0.01559 -0.95865,0.02339c-1.13843,12.52688 -2.27686,25.05377 -3.43063,37.74919c-10.00452,0 -19.59446,0 -29.74735,0c2.80511,-31.6693 5.58337,-63.03546 8.37549,-94.55773c14.7861,0 29.08124,0 43.96875,0c1.55405,15.73929 3.10013,31.39812 4.64621,47.05695c0.2323,0.06192 0.46463,0.12386 0.69696,0.18578c2.0278,-7.07062 4.06988,-14.13721 6.07959,-21.21296c2.17367,-7.65325 4.23147,-15.34126 6.55819,-22.94732c0.3866,-1.26375 1.86954,-3.10549 2.87717,-3.1258c11.121,-0.22422 22.2482,-0.14096 34.08853,-0.14096c-2.69339,29.63017 -5.3377,58.72075 -8.21615,88.56467c-0.58264,2.60513 -0.93115,4.45693 -1.27967,6.30872z" fill="#D2D04A"/>
  <path id="svg_5" d="m469.99403,117.67849c2.22846,-25.68689 4.45667,-51.37382 6.68585,-77.06065c0.32947,-3.79685 0.66407,-7.59326 0.97321,-11.12532c0.58716,-0.43276 0.84247,-0.78561 1.09833,-0.78598c18.14898,-0.02602 36.32818,-0.67288 54.43829,0.1671c16.52215,0.76633 27.92157,21.08844 22.33325,38.10322c-3.21362,9.78459 -8.68317,15.58415 -19.84875,20.79819c5.44116,11.64995 10.88519,23.30598 16.68206,35.71744c-11.14294,0 -21.54681,0.11751 -31.94055,-0.15218c-1.2666,-0.03285 -2.9292,-1.91986 -3.64233,-3.33388c-4.0387,-8.00784 -7.83661,-16.137 -11.73578,-24.21556c-0.70075,-1.45179 -1.49133,-2.86023 -2.91199,-5.56932c-1.09802,11.81343 -2.07007,22.2724 -3.09369,33.28591c-9.87341,0 -19.48437,0 -29.54156,-0.45308c-0.12958,-2.09401 0.18707,-3.73496 0.50366,-5.37589m35.33289,-64.12622c-0.37152,4.42622 -0.74298,8.85245 -1.19263,14.21036c5.86658,-0.33533 11.3205,-0.23708 16.62372,-1.08328c4.05133,-0.64646 6.35772,-4.19526 6.00122,-8.04042c-0.21155,-2.28187 -2.55927,-6.00976 -4.27521,-6.20545c-5.55786,-0.63381 -11.2677,0.06423 -17.1571,1.11879z" fill="#D2D068"/>
  <path id="svg_6" d="m1058.98927,42.64698c16.6471,-16.07186 42.74426,-20.2285 61.08948,-9.9417c19.14062,10.7328 27.40197,32.46398 20.56824,54.10384c-8.81031,27.89922 -40.8169,44.2962 -68.39014,35.03658c-21.05335,-7.0701 -33.45252,-28.9171 -28.99121,-50.65515c2.2738,-11.07911 7.04101,-20.65071 15.72363,-28.54357m43.53906,9.62926c-7.29663,-3.47636 -13.95495,-2.10888 -19.81994,3.04655c-10.27857,9.03513 -13.02124,25.40866 -6.47535,37.36971c4.26697,7.79695 13.44568,10.93374 21.3313,6.8687c17.17127,-8.85176 20.24268,-36.6039 4.96399,-47.28496z" fill="#D1CF49"/>
  <path id="svg_7" d="m703.04908,124.58831c-32.28369,-0.67537 -52.60705,-29.9263 -42.44781,-60.28958c10.80615,-32.29671 49.50409,-46.94804 76.52362,-30.49342c19.29639,11.75132 26.66412,33.43858 18.00787,55.17999c-9.13647,22.94771 -26.96734,34.54954 -52.08368,35.60301m0.87757,-72.97163c-14.58563,7.7303 -20.29096,27.0943 -12.11322,41.11259c4.82849,8.27698 13.21698,10.74919 21.70825,6.39778c12.73096,-6.52407 18.31738,-25.01487 11.64691,-38.55024c-4.34692,-8.82064 -10.98474,-11.78855 -21.24194,-8.96013z" fill="#D0CF94"/>
  <path id="svg_8" d="m469.62715,117.53579c0.05029,1.78363 -0.26636,3.42458 -0.59528,5.42404c-8.83246,0.42134 -17.65497,0.59867 -26.46997,0.41335c-1.20813,-0.02541 -2.39874,-1.83306 -3.54559,-2.87274c-0.18707,-0.16957 -0.08283,-0.64197 -0.14765,-0.96756c-2.45184,-12.31598 -2.45239,-12.31589 -15.33547,-12.31589c-12.54337,0 -12.66947,-0.0398 -16.41315,11.81737c-1.06806,3.38284 -2.53186,4.6999 -6.2236,4.57306c-8.64731,-0.29714 -17.31238,-0.07578 -26.43271,-0.14328c-0.11392,-1.93074 0.23459,-3.78254 0.64859,-5.91906c1.31344,-2.54153 2.82702,-4.69319 3.76876,-7.0713c10.60453,-26.77837 21.12031,-53.59187 31.66996,-80.39198c0.17959,-0.45617 0.48483,-0.86289 0.80169,-1.41521c12.75171,0 25.54236,0 38.74744,0c6.39783,29.62711 12.77893,59.1768 19.52698,88.8692m-38.77149,-41.3298c-0.89831,-4.71486 -1.79663,-9.4297 -2.69494,-14.14455c-0.31864,0.03099 -0.63727,0.06198 -0.9559,0.09296c-2.47437,7.04405 -4.94874,14.08809 -7.52875,21.4329c4.47937,0 8.22421,0 12.49527,0c-0.42969,-2.40628 -0.79779,-4.4678 -1.31568,-7.38131z" fill="#D1CF56"/>
  <path id="svg_9" d="m914.003,28.69374c22.78211,0 45.56427,0 69.03888,0c-0.68286,7.51189 -1.35205,14.87341 -2.06372,22.70168c-12.80261,0 -25.51623,0 -38.73706,0c-0.45032,4.27195 -0.85693,8.12978 -1.33154,12.63134c8.79053,0 17.18933,0 25.88696,0c-0.74463,8.03204 -1.43152,15.43997 -2.17004,23.40494c-8.62952,0 -17.03528,0 -25.75446,0c-0.39386,4.30114 -0.73749,8.0538 -1.1618,12.68757c3.09826,0 5.84131,-0.00001 8.58423,0c8.82544,0.00006 17.65234,-0.08401 26.47448,0.08658c1.40076,0.02709 2.77942,1.20064 4.1095,2.63115c-0.38208,4.79861 -0.70532,8.81021 -1.02856,12.82181c-0.41419,2.42286 -0.82862,4.84573 -1.29017,7.54464c-22.79516,0 -45.48358,0 -68.63531,0c2.06232,-23.76043 4.09821,-47.21626 6.10419,-71.53516c0.63818,-8.23356 1.30627,-15.60406 1.97442,-22.97455z" fill="#D0CF7E"/>
  <path id="svg_10" d="m913.54005,28.61204c-0.2052,7.45219 -0.87329,14.82269 -1.54126,22.6194c-8.30701,0.42621 -16.61407,0.42621 -25.44964,0.42621c-2.16608,24.01204 -4.3086,47.7628 -6.46363,71.65216c-9.95074,0 -19.38232,0 -29.67999,0c2.08417,-23.79198 4.14911,-47.36505 6.27759,-71.66349c-8.34137,0 -16.55695,0 -25.23175,-0.51901c0.20807,-7.83867 0.87536,-15.15834 1.54272,-22.47801c3.62104,-0.05083 7.24213,-0.145 10.86316,-0.14542c23.07324,-0.00269 46.14655,0.01529 69.6828,0.10816z" fill="#D1D095"/>
  <path id="svg_11" d="m832.52955,28.58512c-0.20282,7.38385 -0.87011,14.70352 -1.54297,22.46959c-6.64263,0.44641 -13.27972,0.44641 -20.22265,0.44641c-2.16901,24.22118 -4.28729,47.87615 -6.42548,71.75286c-9.85809,0 -19.42663,0 -29.72967,0c2.10663,-23.92363 4.18628,-47.541 6.30499,-71.60227c-8.62787,0 -17.06415,0 -26.06195,0c0.72394,-7.85796 1.40417,-15.2408 2.1311,-23.13076c25.17359,0 50.12781,0 75.54663,0.06417z" fill="#D0D0AE"/>
  <path id="svg_12" d="m485.89918,157.57224c4.5849,2.35936 6.86383,6.11835 6.87848,10.57844c0.00684,2.08788 -2.09015,5.69804 -3.63184,5.92604c-2.40582,0.35578 -6.54821,-0.8935 -7.43377,-2.6991c-1.43604,-2.92793 -3.27448,-3.39481 -5.73114,-3.47688c-3.90174,-0.13036 -7.81092,-0.03478 -11.82788,-0.03478c0,3.46654 0,5.72711 0,8.78777c4.38922,0 8.49432,-0.00687 12.59942,0.00157c6.47266,0.01329 12.44001,1.43396 15.54371,7.76947c3.34936,6.83709 3.18591,13.95938 -0.81189,20.47339c-1.36799,2.22897 -4.00653,4.42883 -6.48059,5.09356c-8.95264,2.40534 -18.09058,2.33429 -27.0506,-0.22558c-1.98249,-0.56635 -3.66877,-2.1691 -5.79377,-3.48136c-0.31164,0.34519 -0.71356,1.06778 -1.32782,1.42041c-2.135,1.22562 -4.41589,3.32169 -6.50268,3.17078c-1.85632,-0.13428 -4.57471,-2.53061 -5.08411,-4.42117c-1.47406,-5.47083 -4.41022,-7.67221 -9.93139,-6.62992c-0.96485,0.18216 -2.01154,0.14826 -2.99005,0.00565c-5.71207,-0.83261 -9.79059,0.41812 -11.28162,6.94177c-0.93054,4.07141 -4.38309,5.40637 -8.27399,3.87918c-4.10614,-1.61178 -4.55606,-5.00763 -3.07556,-8.68213c5.51202,-13.68023 10.95538,-27.39393 16.86136,-40.90409c0.99817,-2.28339 3.91,-4.51828 6.36719,-5.17945c3.18405,-0.85678 5.35141,1.68744 6.61136,4.7704c4.44103,10.8667 8.98107,21.69294 13.48724,32.53299c0.43085,1.03638 0.88727,2.06217 1.52716,3.54581c0.80585,-1.03723 1.33008,-1.78925 1.93158,-2.47333c3.48388,-3.96243 7.8913,-3.57995 10.71014,0.8855c0.75141,1.19037 1.55207,3.27057 2.41815,3.31751c5.46656,0.29638 10.97443,0.33834 16.42261,-0.10303c0.77948,-0.06311 1.95569,-3.26846 1.7688,-4.88297c-0.17517,-1.5122 -1.73157,-3.82779 -3.00287,-4.06579c-3.55273,-0.66513 -7.27185,-0.5 -10.92682,-0.55057c-10.88397,-0.15064 -16.25641,-5.63783 -16.40014,-16.82747c-0.13306,-10.36079 5.66235,-16.3831 16.38055,-16.2901c5.92273,0.05141 11.83746,1.02284 18.05078,1.82748m-57.63782,22.58631c-0.44183,-0.70441 -0.88366,-1.40882 -1.67544,-2.67114c-1.35159,3.69639 -2.44577,6.68872 -3.62091,9.90248c2.9248,0 5.3425,0 8.22232,0c-0.9184,-2.40824 -1.72052,-4.51148 -2.92597,-7.23134z" fill="#F8F9F9"/>
  <path id="svg_13" d="m1012.19752,59.88433c0.9834,-10.55621 1.92786,-20.65407 2.90479,-31.0985c9.78552,0 19.4928,0 29.70678,0c-2.79431,31.56884 -5.57165,62.94482 -8.35742,94.41733c-10.05102,0 -19.61999,0 -29.71948,0c1.82776,-21.17358 3.62708,-42.01704 5.46533,-63.31883z" fill="#D2D056"/>
  <path id="svg_14" d="m600.14412,188.66616c0,-6.96869 0,-13.43765 0,-21.10025c-13.66065,0 -26.95276,0 -40.60321,0c0,3.45162 0,6.17903 0,9.56412c3.42315,0 6.8706,0.00157 10.31805,-0.00041c4.04456,-0.00232 6.80371,1.53778 6.97815,5.99092c0.1543,3.94031 -2.43494,6.2587 -7.17334,6.38379c-3.31012,0.08737 -6.62445,0.01681 -10.20465,0.01681c0,3.0968 0,5.8523 0,9.29093c5.99451,0 12.10834,-0.323 18.15863,0.15622c2.47998,0.19641 5.72351,1.50039 7.03839,3.39691c2.64697,3.81793 -0.49176,8.85809 -5.58252,9.04336c-8.48383,0.30878 -16.99164,0.21826 -25.48132,-0.00714c-4.27039,-0.1134 -6.6305,-2.57757 -6.6192,-7.08175c0.03521,-13.99421 -0.01136,-27.98859 0.02533,-41.98278c0.01178,-4.4998 2.43316,-6.68103 6.885,-6.68495c4.49817,-0.00397 9.00116,0.13239 13.49347,-0.02978c8.76783,-0.31653 17.48652,0.88461 26.30634,0.18162c8.77399,-0.69931 17.64728,-0.16958 26.47687,-0.13859c1.65667,0.00581 3.7315,-0.38187 4.87488,0.43971c1.91204,1.37392 4.09033,3.37318 4.58593,5.47887c0.66999,2.84655 -0.84448,5.76951 -4.30023,6.18627c-3.94733,0.47605 -7.95502,0.45173 -12.78296,0.6859c0,1.69052 0.00006,3.43089 0.00006,5.17125c-0.00006,9.99593 0.03614,19.99204 -0.01544,29.98767c-0.02649,5.13223 -2.26111,7.73368 -6.46692,7.56479c-4.82483,-0.19375 -5.98334,-3.3587 -5.92657,-7.51983c0.06592,-4.83048 0.01526,-9.66254 0.01526,-14.99366z" fill="#F7F7F8"/>
  <path id="svg_15" d="m666.46315,183.06971c-0.39759,6.81502 -0.38446,13.4698 -0.45728,20.12367c-0.06054,5.53522 -1.87976,7.87824 -6.0412,7.99347c-4.27752,0.1185 -6.44915,-2.43899 -6.48278,-8.12387c-0.07789,-13.14373 -0.00751,-26.28831 -0.0376,-39.43245c-0.00763,-3.34378 0.42865,-6.53535 4.13287,-7.64561c3.65552,-1.09566 6.47754,0.63095 8.5119,3.61746c3.9289,5.76784 7.77185,11.59413 11.66229,17.38824c0.54731,0.81524 1.16108,1.58588 2.04023,2.77915c4.44555,-6.56963 8.90051,-12.82831 12.98541,-19.31985c2.21356,-3.51774 5.10169,-5.53388 9.00708,-4.41239c3.82971,1.09976 4.0802,4.77223 4.07727,8.21866c-0.01056,12.64506 0.1286,25.29269 -0.11432,37.93307c-0.04974,2.59055 -0.89612,5.69211 -2.52704,7.54371c-1.11364,1.26428 -4.87005,1.74478 -6.28857,0.81381c-1.85803,-1.21942 -3.461,-4.11435 -3.61841,-6.39588c-0.46557,-6.74847 -0.16644,-13.54968 -0.16644,-21.94235c-2.90692,4.00884 -4.97058,6.80524 -6.98188,9.63886c-4.05444,5.71209 -9.11975,5.78073 -13.13226,0.10861c-2.11059,-2.98358 -4.13336,-6.0293 -6.56927,-8.88631z" fill="#F6F6F7"/>
  <path id="svg_16" d="m978.52491,170.17262c2.78479,-3.92424 4.90833,-8.008 8.04334,-11.049c1.94299,-1.88486 5.53845,-3.13211 8.16272,-2.808c1.35217,0.16698 3.07983,4.37558 3.13403,6.79169c0.30274,13.48796 0.15967,26.98628 0.13843,40.481c-0.00806,5.14597 -2.13501,7.77796 -6.31628,7.55774c-4.72254,-0.24878 -5.94812,-3.37292 -5.89283,-7.55984c0.08936,-6.77307 0.02405,-13.54819 0.02405,-21.80776c-2.69775,3.86666 -4.5581,6.61821 -6.50525,9.30681c-4.81299,6.64539 -9.29419,6.75046 -14.15259,0.30749c-1.94543,-2.57992 -3.75109,-5.26515 -6.63195,-7.67896c0,5.0575 0.00525,10.115 -0.00257,15.17253c-0.00305,1.99856 0.09864,4.00924 -0.08227,5.99301c-0.36719,4.02725 -2.50659,6.61078 -6.71497,6.33002c-3.94775,-0.26334 -5.74756,-2.8797 -5.74231,-6.7909c0.01282,-9.49631 0.00244,-18.99261 0.00159,-28.48892c-0.00037,-3.99844 0.1062,-8.00057 -0.0315,-11.99426c-0.12451,-3.61019 0.43983,-6.95478 4.38367,-7.95723c3.82996,-0.97353 6.56726,0.96863 8.6388,4.31767c3.14941,5.0916 6.58789,10.00491 9.92663,14.97845c0.90027,1.34105 1.88403,2.62618 3.26099,4.53554c2.23974,-3.42163 4.18188,-6.3889 6.35827,-9.63708z" fill="#F9F9FA"/>
  <path id="svg_17" d="m765.57155,155.743c3.13604,2.86391 6.14416,5.44524 8.60028,8.4742c5.74084,7.07987 11.21661,14.37461 17.80768,22.88347c0,-4.57332 -0.02045,-7.75062 0.00463,-10.92757c0.03943,-4.98748 -0.09131,-9.98797 0.23639,-14.95748c0.22382,-3.39403 2.52551,-5.48987 5.9187,-5.4789c3.27558,0.01057 5.72834,1.60362 6.073,5.28824c0.12348,1.3199 0.3158,2.64189 0.31842,3.96324c0.02436,12.47833 0.04743,24.95689 -0.00757,37.43501c-0.01465,3.31943 0.08405,6.98435 -3.90002,8.30289c-4.06226,1.34445 -6.7417,-0.68393 -9.19635,-3.97751c-6.39606,-8.58231 -13.1145,-16.92441 -20.88165,-25.09518c0,7.35253 0.208,14.7145 -0.12543,22.05188c-0.10138,2.22998 -1.11322,5.08367 -2.72638,6.44476c-3.63196,3.06451 -9.38287,0.32281 -9.45514,-4.54413c-0.21979,-14.80328 -0.18323,-29.61429 0.04712,-44.41772c0.06238,-4.00963 3.15137,-5.48778 7.28632,-5.4452z" fill="#F5F5F6"/>
  <path id="svg_18" d="m900.11122,198.62072c-1.831,7.75797 -6.45606,11.98416 -14.00812,12.29523c-6.09808,0.25119 -12.30981,0.46841 -18.3136,-0.39487c-7.73034,-1.11157 -12.45508,-6.51977 -12.83935,-14.28537c-0.41797,-8.44614 -0.50586,-16.95779 0.04895,-25.3891c0.55481,-8.43086 5.33575,-13.79042 13.55645,-14.71862c6.69971,-0.75644 13.65369,-0.52364 20.35523,0.34638c6.99017,0.90752 11.12042,6.77678 11.31518,13.71676c0.09882,3.52119 -1.1419,5.86833 -4.71307,6.41725c-3.32794,0.5115 -6.50281,-0.67536 -6.94513,-4.08315c-0.56512,-4.3542 -3.43011,-4.36763 -6.36401,-4.62457c-14.45233,-1.26556 -15.35639,-0.42539 -15.34485,13.89386c0.00293,3.65958 0.17853,7.3226 0.06793,10.97775c-0.12622,4.16733 1.64917,6.17862 5.89856,6.05066c3.49139,-0.10516 6.99103,-0.09741 10.48255,0.00772c4.02532,0.12116 5.41449,-1.73883 4.5603,-5.53625c-7.28742,-1.25232 -8.6676,-2.49152 -8.19361,-7.3619c0.06385,-0.65684 0.09668,-1.40415 0.42597,-1.93424c3.44256,-5.5412 8.97943,-2.82751 13.65234,-3.26066c3.17029,-0.29385 6.19239,0.8799 6.45246,4.63701c0.29461,4.25838 0.01208,8.55672 -0.09418,13.24611z" fill="#F7F7F8"/>
  <path id="svg_19" d="m538.72755,162.03343c0.64636,1.39599 1.17468,2.43725 1.56909,3.52693c1.26477,3.49408 1.16401,6.80168 -2.69519,8.43385c-3.68231,1.55736 -6.79162,0.63422 -8.60223,-3.35736c-0.42383,-0.9343 -1.41242,-2.24965 -2.18872,-2.28297c-4.87738,-0.20938 -9.76819,-0.10595 -14.55432,-0.10595c-0.82215,8.40055 -0.82215,8.40065 6.60626,8.40343c2.49835,0.00093 4.99963,-0.07835 7.49445,0.01633c7.4259,0.28183 13.20617,3.77607 14.72869,9.67735c1.95887,7.59273 2.54639,15.24977 -4.04895,21.27635c-6.14056,5.61103 -29.14727,5.63526 -35.05285,-0.25268c-2.07373,-2.0676 -3.10401,-5.30783 -4.23603,-8.16126c-1.33703,-3.36975 0.27967,-5.97107 3.35474,-7.16955c3.31921,-1.29361 6.71606,-0.35065 7.86804,3.13714c1.12915,3.41874 3.19946,3.73838 6.04718,3.65796c3.16205,-0.08932 6.33374,-0.13379 9.4917,0.01047c3.2807,0.14987 5.38849,-0.56021 5.54419,-4.49231c0.15857,-4.00656 -1.7503,-5.37888 -5.34125,-5.39984c-3.49481,-0.02042 -6.99304,0.02005 -10.48352,-0.12204c-9.3454,-0.3804 -14.97406,-6.50638 -15.057,-16.27664c-0.08362,-9.86144 5.19433,-16.38034 14.43774,-16.67322c7.16492,-0.22699 14.7002,-1.9615 21.33478,2.55662c1.32696,0.90369 2.40893,2.16719 3.7832,3.59739z" fill="#F7F8F8"/>
  <path id="svg_20" d="m1091.96962,166.57493c0.06909,12.48406 0.32727,24.97252 0.03564,37.44814c-0.05359,2.28704 -1.9447,5.92987 -3.6991,6.42474c-2.1986,0.62021 -6.0548,-0.57095 -7.58764,-2.35889c-6.69068,-7.80417 -12.79492,-16.11084 -19.12354,-24.22596c-0.65735,-0.84295 -1.39233,-1.62531 -3.06933,-3.56966c0,8.49444 0.21386,15.56769 -0.11646,22.61539c-0.11511,2.45663 -0.8999,5.57089 -2.55908,7.12399c-3.56335,3.33563 -9.64661,0.46387 -9.72742,-4.59278c-0.23181,-14.48391 -0.25207,-28.97831 0.11573,-43.45661c0.05188,-2.04784 2.55065,-5.48754 4.23339,-5.69321c2.41919,-0.29567 5.94825,1.08374 7.56934,2.97653c6.25623,7.30501 11.93494,15.10405 17.84876,22.70352c1.07495,1.38141 2.24328,2.69013 4.0996,4.90438c0,-8.82911 0.04065,-16.57688 -0.01855,-24.32392c-0.02624,-3.43652 1.34802,-6.01364 4.73498,-6.66534c3.37623,-0.64961 6.29175,0.37779 7.25574,5.03924c-0.01404,2.40839 -0.00305,4.02941 0.00794,5.65044z" fill="#FAFAFA"/>
  <path id="svg_21" d="m1043.01173,204.75866c-0.02685,5.30255 -3.50207,6.57291 -7.33118,6.68356c-7.98108,0.23072 -15.97692,0.17527 -23.96093,-0.01037c-4.40576,-0.10242 -7.13953,-2.30673 -7.14307,-7.11957c-0.01001,-14.14383 -0.14197,-28.28812 -0.05554,-42.43117c0.02563,-4.20004 2.54285,-6.25035 6.76648,-6.23681c8.32141,0.02665 16.64306,0.01912 24.9646,0.00085c4.22656,-0.00928 6.69775,2.04527 6.70337,6.27297c0.00573,4.40493 -2.78687,5.99533 -6.90467,5.9535c-6.15112,-0.06245 -12.30334,-0.0162 -18.74389,-0.0162c0,3.09097 0,5.98004 0,9.27142c3.5747,0 7.02893,-0.04884 10.4812,0.01264c4.10657,0.07313 6.72876,2.04591 6.64856,6.31294c-0.07556,4.02521 -2.78931,5.85016 -6.54285,6.0339c-3.45325,0.16904 -6.92114,0.03592 -10.62793,0.03592c0,3.08032 0,5.83872 0,9.2883c5.82398,0 11.73706,-0.06116 17.64807,0.02179c3.85132,0.05402 7.42786,0.71387 8.09778,5.92633z" fill="#F6F7F7"/>
  <path id="svg_22" d="m929.91285,177.31603c3.51648,1.47156 5.16248,3.78258 4.3003,7.19588c-0.95746,3.79121 -3.73078,5.18254 -7.51899,5.03529c-2.99261,-0.11633 -5.9934,-0.02337 -9.33374,-0.02337c0,2.988 0,5.87323 0,9.28546c4.75092,0 9.52692,-0.0152 14.30268,0.00769c1.82934,0.00879 3.6698,-0.00601 5.48486,0.18393c3.64868,0.38183 5.76135,2.38586 5.85376,6.15659c0.08923,3.63833 -2.02356,5.81002 -5.38403,5.90676c-9.13324,0.26297 -18.28272,0.31635 -27.41553,0.07199c-3.92682,-0.10507 -5.72711,-2.91046 -5.7287,-6.78286c-0.00586,-13.99771 -0.0415,-27.99558 0.01331,-41.99309c0.01727,-4.41625 2.30114,-6.73167 6.83392,-6.71648c8.33197,0.02797 16.664,0.0009 24.99603,0.00927c3.94013,0.00396 6.51618,1.91149 6.60956,5.88734c0.09766,4.15379 -2.21069,6.38301 -6.56854,6.33258c-6.32373,-0.0732 -12.64893,-0.01877 -19.15631,-0.01877c0,3.0485 0,5.84274 0,9.33928c4.15857,0 8.24243,0 12.71142,0.12251z" fill="#F6F6F7"/>
  <path id="svg_23" d="m724.39686,162.96912c1.36847,-3.90014 2.75385,-7.33839 7.39661,-7.2982c4.81091,0.04164 6.18591,3.63088 7.67297,7.28569c5.10736,12.55257 10.30847,25.06713 15.50788,37.58202c2.15734,5.19266 1.35101,8.63864 -2.47846,10.12131c-3.9942,1.54641 -7.60925,-0.06006 -8.97681,-5.24826c-1.32189,-5.01487 -4.11712,-6.1406 -8.60687,-5.59617c-1.64007,0.19889 -3.37237,0.28699 -4.98016,-0.01428c-5.52057,-1.03433 -8.37701,1.07163 -9.76056,6.59513c-1.08514,4.33239 -4.81818,5.85965 -8.52148,4.2593c-4.00995,-1.73294 -4.57776,-4.8439 -3.03193,-8.64441c5.2414,-12.88586 10.46271,-25.77986 15.77881,-39.04213m11.2121,24.36669c-1.06879,-3.10031 -2.13757,-6.20061 -3.20642,-9.30092c-0.39301,0.07089 -0.78607,0.14177 -1.17914,0.21265c-1.14294,2.94806 -2.28589,5.89613 -3.59955,9.2845c2.90564,0 5.047,0 7.98511,-0.19623z" fill="#F9FAFA"/>
  <path id="svg_24" d="m810.77479,210.78329c-4.26947,-1.76572 -4.9162,-4.81488 -3.50128,-8.32382c5.76465,-14.29636 11.51508,-28.6033 17.68158,-42.72699c0.8219,-1.88237 3.9718,-3.71726 6.0921,-3.77434c1.88593,-0.0508 4.80603,1.97304 5.60852,3.80778c6.03461,13.79692 11.77655,27.72648 17.34986,41.71817c2.15039,5.39847 1.06433,7.90033 -3.12165,9.27302c-4.46643,1.46465 -7.16034,-0.6597 -8.17694,-4.78226c-1.32025,-5.35394 -4.49951,-7.13892 -9.71106,-6.16272c-1.2879,0.24124 -2.68585,0.20715 -3.98779,0.00592c-5.24243,-0.81034 -8.75482,0.53396 -10.12512,6.33813c-0.85224,3.60971 -3.25952,6.28372 -8.10822,4.62711m23.33393,-25.20188c-1.09125,-2.69645 -2.18244,-5.39291 -3.58234,-8.85212c-1.47137,3.94279 -2.64984,7.10069 -4.26404,11.42628c3.30713,-0.71512 5.63171,-1.21777 7.84638,-2.57416z" fill="#F9F9FA"/>
  <path id="svg_25" d="m1092.07472,166.18466c-0.11609,-1.23076 -0.12708,-2.85178 -0.14087,-4.87766c4.51807,-7.37238 11.58484,-5.60602 18.10083,-5.64673c7.49182,-0.04683 14.98437,-0.01529 22.47656,-0.00891c4.00073,0.00342 7.38733,0.7941 7.50342,5.82987c0.10083,4.37384 -2.00549,6.39511 -7.34289,6.68243c-2.98438,0.16064 -5.98438,0.02889 -9.6554,0.02889c0,5.40965 0.00049,10.6602 -0.00012,15.91075c-0.00086,6.82623 0.10303,13.65472 -0.04358,20.47784c-0.08765,4.07559 -2.27246,6.44458 -6.51782,6.62351c-4.48096,0.1889 -5.82276,-2.74711 -5.89234,-6.38376c-0.16894,-8.82038 -0.08728,-17.64557 -0.10315,-26.46883c-0.00561,-3.1387 -0.00097,-6.27742 -0.00097,-10.14493c-3.06958,0 -5.8324,0.09839 -8.58521,-0.0262c-3.07678,-0.13926 -6.49451,0.36287 -8.09204,-3.41972c-0.09631,-0.228 -0.96326,-0.42444 -1.06946,-0.29799c-0.29175,0.34763 -0.3695,0.87492 -0.63696,1.72144z" fill="#F6F7F7"/>
  <path id="svg_26" d="m287.92964,161.90122c3.2012,-7.28807 9.5892,-6.39166 15.78909,-6.29032c8.31381,0.13592 16.63159,0.04751 24.9476,0.02809c4.11612,-0.00962 7.21048,1.12255 7.35718,6.00306c0.14523,4.83272 -2.80145,6.35477 -6.93326,6.50679c-3.15194,0.11599 -6.31158,0.02307 -10.22778,0.02307c0,4.75095 0,9.32274 0,13.89454c0,6.65284 0.0162,13.30574 -0.00458,19.95851c-0.0209,6.6994 -1.66571,9.04532 -6.37295,9.18637c-4.49695,0.13476 -6.00983,-2.14044 -6.02857,-9.27796c-0.02881,-10.96456 -0.0076,-21.92929 -0.0076,-33.71627c-2.63183,0 -5.04593,0.11952 -7.44354,-0.02828c-3.50085,-0.21583 -7.56509,0.84104 -9.41626,-3.66871c-0.46854,0.43272 -0.9371,0.86546 -1.54428,1.29049c-0.1308,-1.30826 -0.12293,-2.60881 -0.11505,-3.90938z" fill="#F4F4F5"/>
  <path id="svg_27" d="m976.00831,116.03951c0.1648,-4.3923 0.48804,-8.4039 0.87012,-12.78289c3.43579,-4.29737 7.03003,-7.87708 12.55713,-8.53804c6.81543,-0.81507 13.28699,3.08841 15.29785,9.27073c2.24939,6.91532 -1.12866,14.97065 -7.82397,18.65732c-6.44458,3.54862 -14.16419,2.34094 -18.51746,-2.94884c-0.83557,-1.0153 -1.48816,-2.18116 -2.38367,-3.65828z" fill="#D1CF68"/>
  <path id="svg_28" d="m287.96245,161.51097c-0.04069,1.69082 -0.04856,2.99137 -0.02561,4.68116c0.08899,13.17958 0.16254,25.96994 0.19583,38.76038c0.0098,3.75934 -1.95691,6.00049 -5.68075,6.16528c-3.83896,0.1698 -6.44675,-1.55969 -6.46469,-5.78454c-0.06137,-14.45517 -0.07544,-28.91057 -0.0817,-43.36588c-0.00149,-3.47555 1.73608,-5.73602 5.19257,-6.17224c3.89697,-0.49181 6.3244,1.31413 6.86435,5.71584z" fill="#FDFDFD"/>
  <path id="svg_29" d="m367.42952,198.09216c-5.24988,-0.54456 -8.39438,-2.88718 -8.97538,-7.98804c-0.518,-4.54826 -0.81625,-10.0475 3.80817,-11.72966c4.2052,-1.52968 10.08633,-1.651 14.04425,0.17464c4.6077,2.12539 3.54529,8.04705 2.81864,12.60501c-0.5897,3.69879 -2.80405,6.25265 -6.88584,6.58844c-1.47668,0.12143 -2.94958,0.28824 -4.80984,0.34961z" fill="#F6F7F7"/>
 </g>
</svg>