<svg width="1190" height="227" xmlns="http://www.w3.org/2000/svg" xml:space="preserve" enable-background="new 0 0 1298 338" version="1.1">

 <g>
  <title>Layer 1</title>
  <path id="svg_2" d="m71.16737,198.11967c-19.9997,0.45392 -35.29351,-7.03665 -44.52068,-24.61183c-5.38439,-10.25577 -9.96878,-20.95474 -14.50357,-31.62831c-8.50934,-20.02852 -6.89833,-39.37494 5.06372,-57.61231c4.74625,-7.23615 10.07199,-14.0901 15.04363,-21.18134c3.06365,-4.36979 4.79949,-9.12552 3.49571,-14.58932c-0.80675,-3.38089 -2.44995,-6.00099 -6.29484,-5.95045c-4.06352,0.05342 -7.01939,1.89942 -7.98276,6.14346c-0.11,0.48458 -0.07692,1.00153 -0.18586,1.48648c-0.99266,4.41913 -4.13373,7.08042 -8.05126,6.50607c-4.47122,-0.65553 -6.49986,-3.55178 -6.71904,-7.96013c-1.05032,-21.12601 11.67506,-37.98456 32.31537,-42.76659c33.90614,-7.85548 54.48933,19.26558 56.91443,41.58239c0.49272,4.53419 -0.82361,6.31858 -5.4944,7.26287c-17.63321,3.56486 -34.34907,9.49363 -48.34429,21.39265c-2.02806,1.72431 -4.10187,3.45261 -5.83014,5.45854c-2.781,3.22777 -2.80561,6.78797 0.15119,9.88887c2.76562,2.90038 6.69131,3.65886 9.45914,0.88341c17.55704,-17.6053 40.56993,-22.07329 63.46652,-26.65514c15.19157,-3.03998 25.12846,-11.59731 29.9358,-26.16005c3.02424,-9.16127 5.90062,-18.37782 8.54625,-27.65428c1.00003,-3.50641 2.48345,-6.2701 6.15664,-7.06124c3.99896,-0.86131 6.93897,1.18854 8.59404,4.56839c6.98092,14.25586 18.23631,22.46205 33.3432,27.53179c21.4931,7.2129 22.79962,33.20374 15.17233,45.98862c-3.90198,6.5405 -9.91834,11.79154 -17.43399,10.60597c-13.55367,-2.13801 -17.51354,7.57421 -23.67508,16.18273c2.38022,0.99669 4.31433,1.812 6.25258,2.61729c10.50082,4.36278 16.41269,13.19528 16.43492,24.55931c0.01198,6.12426 -2.62808,8.96511 -8.72388,9.00721c-11.66582,0.08059 -23.33754,-0.15264 -34.99484,0.17305c-2.43848,0.06813 -5.5145,1.37185 -7.12154,3.16148c-9.04812,10.07617 -20.03772,16.33305 -34.57066,18.07149c1.55655,1.93893 2.78467,3.00286 3.4241,4.34689c2.60729,5.48028 5.88313,10.83923 7.2975,16.63693c1.51924,6.22756 -2.13981,9.70403 -8.64302,9.74584c-12.4992,0.08038 -24.99928,0.02731 -37.97722,0.02926m98.51523,-133.86064c6.37607,-1.01779 9.63713,-5.69298 7.25519,-10.51676c-1.64951,-3.34047 -4.69798,-5.41474 -8.04294,-4.05561c-2.45822,0.99882 -5.16859,3.74847 -5.84225,6.2385c-1.14717,4.24026 1.66865,7.08323 6.63,8.33387z" fill="#D3D04A"/>
  <path id="svg_3" d="m659.00793,122.53471c-0.9671,4.04836 -1.35137,7.93126 -3.05853,11.10199c-1.85852,3.45198 -6.05029,4.13577 -9.2807,2.64841c-2.70288,-1.24448 -5.00043,-3.99722 -6.68445,-6.59596c-1.04339,-1.61013 -0.79297,-4.17952 -0.80175,-6.31966c-0.06098,-14.82889 0.21728,-29.66368 -0.10657,-44.48581c-0.39417,-18.04069 -18.80622,-28.93185 -33.9845,-20.16171c-7.03113,4.06262 -11.25964,10.48877 -11.46045,18.7301c-0.38129,15.64735 -0.28088,31.30599 -0.50482,46.95815c-0.03473,2.42265 -0.21582,5.08076 -1.22723,7.20172c-2.01679,4.22898 -5.90711,5.86921 -10.41639,4.94633c-4.47851,-0.91655 -7.53424,-3.85383 -7.59326,-8.5908c-0.20532,-16.47811 -0.22223,-32.95969 -0.14886,-49.43921c0.01385,-3.11807 0.46527,-6.30922 1.22815,-9.3373c7.46783,-29.64203 38.97155,-42.43905 64.74811,-26.2475c3.32629,2.08941 6.11016,5.04229 9.52972,7.91855c0.67779,-0.54223 1.72827,-1.24253 2.6131,-2.11151c12.39984,-12.17769 27.0766,-16.19845 43.50885,-10.65023c15.50329,5.23454 24.83838,16.67254 28.46637,32.60032c0.73248,3.21558 0.94452,6.60532 0.96637,9.9176c0.09899,14.99511 0.10192,29.99155 0.01397,44.98679c-0.03228,5.50954 -2.96722,9.75331 -7.10211,10.90242c-4.19849,1.16681 -9.13702,-0.61156 -11.06323,-4.70297c-1.14972,-2.44197 -1.56134,-5.42386 -1.58807,-8.17005c-0.14643,-14.99434 0.1026,-29.99336 -0.11554,-44.98596c-0.26227,-18.02232 -19.59198,-28.97723 -34.59424,-19.58539c-7.77637,4.86824 -11.32605,12.35904 -11.33771,21.50391c-0.01764,13.82951 -0.00561,27.65906 -0.00623,41.96777z" fill="#D0CF49"/>
  <path id="svg_4" d="m323.82562,103.66664c-0.00009,-8.1655 0.04889,-15.83139 -0.01092,-23.49643c-0.10895,-13.96897 -9.95093,-24.4751 -22.87375,-24.49631c-12.77335,-0.02098 -22.80487,10.56808 -22.90848,24.43276c-0.11081,14.83024 0.1629,29.66626 -0.17447,44.48965c-0.07318,3.21492 -1.21878,7.20777 -3.36459,9.33528c-1.93585,1.91933 -6.42371,3.11568 -8.86496,2.19318c-2.87882,-1.0878 -6.71369,-4.75054 -6.77637,-7.377c-0.49499,-20.73544 -3.60892,-41.81151 1.59821,-62.13898c7.99917,-31.22692 47.21521,-41.10554 70.13504,-18.39187c0.94317,0.9347 1.92126,1.8342 4.55383,4.34113c0.9826,-1.76918 1.59619,-3.8726 2.96564,-5.19067c22.60348,-21.75589 59.92672,-11.41819 69.01599,19.11996c1.07666,3.61736 1.83185,7.473 1.88009,11.2292c0.21183,16.49305 0.19803,32.99084 0.07068,49.48541c-0.04275,5.54251 -4.1726,9.44726 -9.41021,9.56199c-5.3176,0.11649 -9.21167,-3.56044 -9.73203,-9.26739c-0.13574,-1.48888 -0.09909,-2.99573 -0.09979,-4.49434c-0.00662,-13.99788 0.05191,-27.99603 -0.022,-41.99353c-0.05997,-11.35999 -6.11872,-20.68155 -15.38807,-23.97667c-14.75717,-5.24596 -30.22851,5.31133 -30.51116,21.12427c-0.26206,14.65979 -0.03962,29.32792 -0.08463,43.99223c-0.00662,2.15242 -0.08594,4.35153 -0.52524,6.44651c-1.09994,5.24577 -5.01657,8.42703 -9.7619,8.21215c-5.24753,-0.23761 -9.38074,-4.08224 -9.58826,-9.64904c-0.28531,-7.65473 -0.104,-15.32683 -0.12265,-23.49149z" fill="#D1CF49"/>
  <path id="svg_5" d="m944.48852,127.19426c-20.23138,-17.97492 -24.72515,-45.2272 -10.38342,-67.9951c18.70722,-29.69812 55.86536,-29.33266 75.83228,-9.72641c9.85693,9.67896 15.30078,21.19276 16.02209,34.87785c0.45508,8.63199 -2.76001,11.84025 -11.41553,11.86475c-20.16076,0.05703 -40.32177,0.01861 -60.48266,0.01887c-1.97724,0.00003 -3.95441,0.00002 -5.92688,0.00002c-0.03632,7.71496 7.64032,17.30598 16.83893,20.49942c11.7182,4.0681 22.5849,2.66217 31.7276,-6.49636c1.05932,-1.06119 2.06823,-2.17996 3.19055,-3.16993c4.31579,-3.80701 9.68713,-3.93213 13.48584,-0.36478c4.32959,4.0659 4.74548,8.96371 0.77808,13.76684c-8.75684,10.60143 -19.99488,16.79882 -33.74854,18.02587c-13.35327,1.19134 -25.32257,-2.38007 -35.91834,-11.30104m57.73316,-55.90637c-10.59216,-17.46238 -29.16101,-18.66385 -40.2348,-12.03726c-7.03699,4.21105 -12.62732,9.76342 -14.47248,18.55712c19.24396,0 37.94092,0 57.39551,0c-0.88269,-2.29188 -1.57043,-4.07721 -2.68823,-6.51986z" fill="#CFCD49"/>
  <path id="svg_6" d="m434.49838,47.13751c15.88095,-12.70639 33.37351,-15.12374 51.2363,-7.11285c18.54761,8.31803 28.81482,23.73076 29.95959,44.16095c0.79999,14.27763 0.3296,28.63104 0.26557,42.94989c-0.02118,4.7234 -3.73254,8.82588 -7.99286,9.47319c-5.56561,0.84558 -9.05896,-1.47806 -11.6756,-7.82625c-4.52337,2.28287 -8.86359,5.05978 -13.59051,6.76469c-33.39823,12.04613 -68.13053,-13.74447 -66.88199,-49.37834c0.54889,-15.66533 6.67593,-28.51835 18.6795,-39.03128m1.45166,44.64014c2.18079,13.17129 9.41333,22.39961 22.29532,25.98964c12.14374,3.38434 22.78308,-0.29802 30.69196,-10.18312c8.1875,-10.2334 9.61273,-21.85915 4.24109,-33.70902c-5.40412,-11.92139 -14.94202,-18.40359 -28.36329,-18.17818c-17.50747,0.29404 -30.38092,16.01029 -28.86508,36.08068z" fill="#D1CF49"/>
  <path id="svg_7" d="m1126.04248,36.57775c27.93896,-5.28205 55.41138,15.81901 58.2522,43.70322c2.22558,21.84537 -5.61536,38.72983 -23.46375,50.93129c-18.59655,12.71289 -46.26855,9.0622 -61.56274,-7.6634c-16.42346,-17.96059 -19.36878,-42.584 -7.02368,-63.13941c7.58081,-12.62238 18.46399,-21.15698 33.79797,-23.8317m34.70996,67.12954c3.62268,-6.26466 5.02014,-13.03891 4.11011,-20.17081c-1.55115,-12.15533 -7.78565,-21.13901 -19.25598,-25.72435c-11.61035,-4.64131 -22.26905,-2.33266 -31.25806,6.33057c-9.36365,9.02429 -11.97668,20.24367 -8.33691,32.44504c3.53405,11.84684 11.54345,19.80224 24.09155,21.81266c13.03662,2.0887 22.96301,-3.35191 30.64929,-14.69311z" fill="#D0CE49"/>
  <path id="svg_8" d="m741.46338,118.20195c-14.16394,-17.39792 -12.24353,-46.34958 0.76807,-63.31638c20.21325,-26.35739 66.64562,-28.06754 84.97009,11.828c8.5932,18.70885 3.36834,43.97637 -11.59876,58.03481c-16.18524,15.20276 -38.47296,18.67902 -57.53277,7.92406c-6.16419,-3.47829 -10.95069,-9.39804 -16.60663,-14.47049m64.28314,-49.67206c-4.61597,-3.6495 -8.69897,-8.66566 -13.94092,-10.70998c-21.74688,-8.48104 -43.11078,9.44619 -40.66205,33.53536c1.30091,12.79829 12.02436,24.72651 24.31312,27.04468c13.11511,2.47404 26.73474,-4.29297 32.60565,-16.52072c5.37011,-11.1847 4.44653,-22.15621 -2.3158,-33.34934z" fill="#D0CE49"/>
  <path id="svg_9" d="m885.4328,39.66656c0.00049,-7.3257 -0.07178,-14.15237 0.02014,-20.97683c0.10669,-7.92663 3.177,-11.26718 10.05768,-11.19468c6.56506,0.06917 9.60541,3.53744 9.66034,11.14199c0.04565,6.31438 0.00934,12.62935 0.00934,19.84934c4.17438,0 8.08026,-0.03597 11.98517,0.00795c6.82916,0.07681 10.66168,3.39986 10.66339,9.17995c0.00146,4.95897 -3.93201,8.50637 -10.08179,8.7955c-3.96448,0.18639 -7.94482,0.03502 -12.203,0.03502c-0.14179,1.64206 -0.34571,2.92272 -0.34839,4.2038c-0.02466,11.82007 -0.0622,23.64044 -0.00116,35.46024c0.06061,11.721 4.80084,18.41943 15.81036,22.58979c5.92255,2.24346 8.33618,7.58306 6.1897,13.69297c-1.67883,4.77876 -6.48895,6.7696 -12.31378,5.09639c-17.95197,-5.1568 -29.3501,-20.92601 -29.43164,-40.94481c-0.07666,-18.81192 -0.01648,-37.6244 -0.01636,-56.93662z" fill="#CFCD49"/>
  <path id="svg_10" d="m874.75384,55.80665c-5.66912,0.4088 -10.94079,0.72725 -16.39001,1.05642c0,15.01156 -0.61652,29.97775 0.23285,44.86027c0.50421,8.83411 6.60095,14.44173 15.25732,17.06648c4.7605,1.44347 7.41639,5.70571 6.90082,10.3429c-0.50378,4.53055 -2.6383,8.4386 -7.38769,8.72369c-3.62153,0.21738 -7.65607,-0.79577 -10.9881,-2.36378c-16.00629,-7.53226 -23.97016,-20.60938 -24.15247,-38.08887c-0.27618,-26.48099 -0.10583,-52.96702 -0.05121,-79.45076c0.01416,-6.83758 3.56897,-10.45697 9.88147,-10.45781c6.44349,-0.00085 9.83014,3.44827 9.92945,10.3574c0.09558,6.64511 0.02075,13.29267 0.02075,20.64716c4.38153,0 8.47852,0.01137 12.57538,-0.00299c4.66833,-0.01637 8.17517,2.00912 9.48541,6.49894c1.37897,4.72524 -0.45196,8.44097 -5.31397,10.81095z" fill="#D0CF49"/>
  <path id="svg_11" d="m557.44617,60.9722c-9.13459,6.6811 -13.23029,15.60621 -13.39276,26.33496c-0.18403,12.15623 -0.03888,24.31736 -0.0517,36.47638c-0.00159,1.49682 0.06561,3.01953 -0.17334,4.48553c-0.77185,4.73508 -5.00672,8.41754 -9.65582,8.54465c-4.70411,0.1286 -8.75006,-3.31281 -9.71735,-8.29649c-0.1579,-0.81336 -0.29309,-1.65041 -0.28198,-2.4744c0.20776,-15.47321 -0.05432,-30.97308 0.78912,-46.41234c1.08161,-19.79918 20.33905,-39.91357 40.0553,-42.87376c5.05072,-0.75831 10.11871,2.3013 11.28497,6.81283c1.38538,5.35913 -0.95691,9.76115 -6.23633,11.92478c-4.1333,1.69391 -8.22131,3.49825 -12.62011,5.47786z" fill="#D0CE49"/>
  <path id="svg_12" d="m1076.85352,65.66759c-0.00013,19.81065 0.04138,39.12172 -0.05225,58.43212c-0.01184,2.43331 -0.26025,5.07569 -1.23328,7.24755c-1.70129,3.79785 -5.01111,5.69998 -9.28308,5.41548c-4.27905,-0.28499 -7.06824,-2.71221 -8.40405,-6.64707c-0.57336,-1.68919 -0.70166,-3.59461 -0.70484,-5.40237c-0.04333,-24.47145 -0.02539,-48.94302 -0.03234,-73.41455c-0.00135,-4.60075 1.2063,-8.63258 5.69653,-10.73958c6.48401,-3.04259 13.33911,1.1294 13.87524,8.63494c0.37867,5.30081 0.11499,10.64749 0.13807,16.47348z" fill="#CFCD49"/>
  <path id="svg_13" d="m710.24402,223.6757c-3.71094,-0.96948 -4.50153,-3.39776 -4.46356,-6.54409c0.09149,-7.57438 0.02966,-15.15058 -1.09973,-23.11489c-2.39515,3.42159 -4.75574,6.868 -7.19318,10.2592c-4.20343,5.84833 -8.3476,5.91901 -12.52387,0.11994c-2.49786,-3.46845 -4.77429,-7.09627 -8.10675,-10.5215c0,6.51784 0.02314,13.03578 -0.01391,19.55339c-0.01129,1.99032 0.4256,4.32428 -0.44806,5.88034c-1.03882,1.85022 -3.45777,4.37851 -4.93585,4.17105c-1.96424,-0.27576 -4.65583,-2.64639 -5.14026,-4.58939c-0.86194,-3.45703 -0.32654,-7.26858 -0.33136,-10.93191c-0.01355,-10.32773 -0.2287,-20.66405 0.16577,-30.9767c0.08942,-2.33818 1.8985,-5.95243 3.68988,-6.51494c1.87701,-0.5894 5.54016,1.14017 6.93359,2.98239c5.10651,6.75128 9.59363,13.97116 14.57019,21.397c4.21613,-6.32602 8.26978,-12.44427 12.36811,-18.53237c1.01764,-1.51169 1.8966,-3.40682 3.34814,-4.26281c1.8114,-1.06816 4.39563,-2.07269 6.18231,-1.54225c1.43415,0.42577 2.99591,3.13893 3.08393,4.90758c0.36383,7.31122 0.19696,14.64928 0.2091,21.97749c0.01111,6.66306 0.07843,13.32736 -0.02923,19.98868c-0.0603,3.73081 -1.41516,6.53015 -6.26526,6.29379z" fill="#F6F7F7"/>
  <path id="svg_14" d="m1000.50562,187.13447c1.71032,2.49181 3.18579,4.69533 5.13195,7.60187c3.0304,-4.47273 5.77759,-8.51571 8.51197,-12.5674c1.9541,-2.89569 3.48718,-6.23198 5.96655,-8.56596c1.89758,-1.78625 5.12781,-3.34145 7.48157,-3.00638c1.37426,0.19562 3.05578,4.28816 3.1134,6.66358c0.30688,12.65146 0.1449,25.31427 0.14368,37.97317c-0.00013,0.83264 0.03503,1.66892 -0.02771,2.49731c-0.26892,3.55134 -1.60535,6.21463 -5.71778,6.0084c-3.77295,-0.18918 -5.08459,-2.70536 -5.10827,-6.09604c-0.04432,-6.32913 -0.01563,-12.65881 -0.01709,-18.98825c-0.00037,-1.58241 0,-3.16483 -0.90943,-5.00638c-2.39746,3.61426 -4.75354,7.25674 -7.20178,10.83627c-3.91003,5.71668 -8.62415,5.67267 -12.55823,-0.08114c-2.47241,-3.61588 -4.91626,-7.25132 -8.29834,-10.58739c0,7.74431 -0.10315,15.49062 0.04456,23.2321c0.07117,3.72788 -1.12537,6.3085 -5.06189,6.57532c-4.08789,0.27707 -5.73828,-2.63114 -5.77039,-6.0314c-0.13195,-13.98682 -0.13879,-27.98035 0.23633,-41.95995c0.05115,-1.9068 2.33484,-5.0762 3.91162,-5.29396c2.09925,-0.28992 5.23267,1.15469 6.6593,2.89139c3.46656,4.21994 6.20398,9.03889 9.46998,13.90484z" fill="#F7F7F8"/>
  <path id="svg_15" d="m1121.46912,196.48067c0.00061,-6.81037 -0.03345,-13.14011 0.01513,-19.46924c0.02723,-3.55551 0.74024,-7.01462 5.14319,-7.10381c4.56519,-0.09248 5.61633,3.07401 5.58911,7.08977c-0.08911,13.15808 -0.0382,26.31714 -0.03027,39.47583c0.00183,2.90988 -0.00891,6.42657 -3.49439,6.72702c-2.33215,0.20105 -5.64916,-1.15137 -7.15747,-2.95355c-6.92468,-8.27442 -13.35986,-16.95813 -19.99475,-25.47623c-0.7511,-0.96422 -1.65344,-1.81059 -3.35644,-3.65449c0,9.39338 -0.06873,17.49708 0.03052,25.59874c0.04614,3.77014 -0.77002,6.81017 -5.2046,6.9129c-4.5885,0.10629 -5.21972,-3.09302 -5.20837,-6.77381c0.04102,-13.3251 -0.12854,-26.65355 0.15674,-39.9727c0.04822,-2.2521 1.86084,-6.27035 3.01025,-6.32588c2.52723,-0.12207 5.98926,1.06152 7.59009,2.95984c6.63159,7.86369 12.70789,16.19542 19.00171,24.34482c0.8794,1.13867 1.83399,2.2193 3.44617,4.16055c0.21325,-2.32861 0.33825,-3.69376 0.46338,-5.53976z" fill="#F9F9F9"/>
  <path id="svg_16" d="m811.61072,200.52897c0.1626,-8.31752 0.23846,-16.14863 0.17273,-23.97857c-0.03266,-3.88637 1.23639,-6.74783 5.52521,-6.64711c3.98785,0.09366 5.2124,3.02441 5.2199,6.54262c0.02924,13.66246 0.15729,27.32809 -0.13708,40.98425c-0.04443,2.06262 -1.82983,5.44534 -3.35181,5.78433c-2.02856,0.45181 -5.37225,-0.81897 -6.78607,-2.49872c-6.84198,-8.1286 -13.22449,-16.64389 -19.77618,-25.01716c-0.90515,-1.15685 -1.84577,-2.28598 -3.34943,-4.14398c-0.2616,1.93006 -0.55286,3.10778 -0.55963,4.28715c-0.04309,7.4975 -0.05237,14.99548 -0.0116,22.49301c0.01892,3.47955 -1.72156,5.38791 -5.08606,5.43543c-3.3385,0.04715 -5.4151,-1.92337 -5.43945,-5.23484c-0.10681,-14.49481 -0.15729,-28.99293 0.10919,-43.48365c0.0304,-1.6561 1.95044,-4.32952 3.40094,-4.64168c1.82221,-0.39215 4.80316,0.54603 6.00263,1.98118c7.02343,8.4039 13.64502,17.14261 20.48065,25.7058c0.92077,1.15347 2.28302,1.95456 3.58606,2.43194z" fill="#F5F5F6"/>
  <path id="svg_17" d="m900.52759,223.81038c-13.13312,-0.48682 -17.97168,-4.78281 -18.81146,-17.34723c-0.46442,-6.94873 -0.29529,-13.98168 0.15777,-20.93958c0.61511,-9.44705 4.57806,-14.18814 13.87982,-15.27105c6.5102,-0.75792 13.29926,-0.28937 19.82697,0.61667c5.91528,0.82104 10.4989,7.06011 10.09533,13.02078c-0.11987,1.77058 -2.31329,4.73732 -3.64068,4.78436c-2.12824,0.07544 -5.85071,-1.45699 -6.21491,-2.96028c-1.18151,-4.87628 -4.34728,-5.22096 -8.17456,-5.18588c-2.66534,0.02442 -5.33435,-0.06594 -7.99566,0.0433c-6.11438,0.25093 -7.33277,1.42136 -7.43415,7.40271c-0.10168,5.99622 0.03699,11.99629 -0.04205,17.99321c-0.06213,4.715 2.133,7.10681 6.85773,7.12705c3.33197,0.01428 6.66406,-0.00812 9.99603,0.00509c4.59631,0.01819 6.92041,-1.96277 5.88367,-7.21283c-1.0401,-0.12948 -2.58679,0.12491 -3.46057,-0.52517c-1.74262,-1.29651 -4.40595,-3.15912 -4.32508,-4.6605c0.10871,-2.01593 2.17847,-5.22262 3.89911,-5.58626c3.62458,-0.76603 7.65741,-0.43818 11.33997,0.32393c1.45282,0.30068 3.22467,2.85617 3.43823,4.56183c0.44922,3.58862 0.28259,7.33695 -0.20264,10.94284c-1.03125,7.66376 -5.92169,12.13324 -13.64874,12.70078c-3.64752,0.26791 -7.32361,0.14694 -11.42413,0.16623z" fill="#F5F6F6"/>
  <path id="svg_18" d="m538.77148,186.31267c-3.94995,1.44891 -6.61004,0.71698 -8.63238,-2.92429c-0.75641,-1.36194 -2.91516,-2.42085 -4.58496,-2.69223c-2.76148,-0.44879 -5.64575,-0.10968 -8.47681,-0.17099c-3.40423,-0.07373 -5.69574,0.62917 -5.62835,4.93004c0.06671,4.25377 2.01959,5.46617 5.85021,5.38751c3.98792,-0.08188 8.02082,-0.14453 11.96674,0.33659c8.72626,1.06411 12.89453,6.55725 12.9104,16.43436c0.01514,9.40857 -4.27826,15.06778 -12.92193,15.85312c-6.10596,0.55472 -12.32972,0.46225 -18.45209,0.00528c-6.31885,-0.47165 -11.70899,-5.89172 -11.63446,-11.65988c0.02533,-1.96497 1.80963,-5.08627 3.39654,-5.53494c1.73993,-0.49195 5.539,1.01477 6.05774,2.48904c1.49475,4.24786 4.42163,4.40305 7.85822,4.35901c3.33081,-0.0427 6.66241,-0.09824 9.99292,-0.06668c3.96484,0.03753 5.14373,-2.177 4.99988,-5.75064c-0.13581,-3.3765 -0.93427,-5.86896 -5.09705,-5.69663c-3.32349,0.13758 -6.66107,-0.00757 -9.99072,-0.09265c-10.24329,-0.26169 -15.60248,-5.77132 -15.56189,-15.95512c0.04132,-10.35608 5.31054,-15.77703 15.65991,-15.70549c5.13251,0.03549 10.40942,-0.04157 15.35711,1.08799c7.36408,1.6812 10.7038,9.41875 6.93097,15.3666z" fill="#F5F6F6"/>
  <path id="svg_19" d="m490.60181,205.94737c-0.47089,13.31299 -4.79084,17.6543 -17.50946,17.88962c-4.15552,0.07687 -8.33497,0.13248 -12.46961,-0.21057c-7.45093,-0.6182 -12.93085,-5.46649 -12.95514,-11.90607c-0.00708,-1.87677 2.04776,-5.09259 3.52054,-5.3176c1.98596,-0.30337 5.70395,1.23163 6.22635,2.79642c1.13751,3.40741 3.24121,3.86496 5.96924,3.88266c3.98663,0.02591 7.97424,-0.15634 11.96185,-0.18884c3.76654,-0.0307 4.73889,-2.18698 4.66724,-5.54679c-0.07367,-3.45938 -0.97766,-5.79559 -5.04456,-5.69827c-3.65576,0.08743 -7.32019,0.00022 -10.97601,-0.13608c-9.30228,-0.34683 -14.77823,-6.21018 -14.82697,-15.78175c-0.04809,-9.4491 4.99192,-15.23691 14.17578,-15.86308c4.3053,-0.29352 8.66376,-0.25174 12.97132,0.03706c6.35876,0.42632 11.1723,4.18488 12.54986,9.66655c0.7024,2.79468 1.03144,5.98073 -2.49688,7.15415c-3.01349,1.00221 -5.68463,0.48123 -7.50489,-2.92341c-0.79315,-1.48359 -3.03033,-2.73442 -4.79327,-3.03848c-2.90747,-0.50145 -5.96716,-0.0435 -8.95374,-0.1828c-3.4483,-0.16083 -5.20538,0.96138 -5.1734,4.79016c0.03162,3.77826 1.36036,5.5802 5.26343,5.39516c2.8205,-0.13373 5.6546,0.03728 8.48261,0.03726c9.23571,-0.00008 16.24304,3.55463 16.91571,15.1447z" fill="#F5F5F6"/>
  <path id="svg_20" d="m1079.1394,176.27318c-2.05859,1.66122 -4.00036,3.91794 -6.10229,4.07849c-6.43823,0.49185 -12.93787,0.17889 -19.6239,0.17889c0,3.50198 0,6.61426 0,10.58563c3.3446,0 6.74927,0.01654 10.15356,-0.00434c3.94409,-0.02421 7.26197,1.20451 7.16284,5.69656c-0.09301,4.21727 -3.21362,5.28959 -7.04235,5.09074c-3.2815,-0.17038 -6.57874,-0.03525 -10.17139,-0.03525c0,3.89356 0,7.28531 0,11.25126c6.20581,0 12.32971,0.0162 18.45349,-0.00599c3.776,-0.01367 7.29224,0.46537 7.177,5.38236c-0.11108,4.74246 -3.4928,5.40903 -7.32617,5.3851c-7.32959,-0.04578 -14.6604,0.0513 -21.98938,-0.03574c-5.80017,-0.06884 -7.27563,-1.34381 -7.33325,-6.97396c-0.13635,-13.32572 -0.12036,-26.65441 -0.01196,-39.98062c0.04504,-5.5539 1.72998,-7.05286 7.23852,-7.07561c7.66297,-0.03165 15.32642,0.03265 22.98914,-0.02353c4.19238,-0.03075 6.72998,1.52682 6.42614,6.48601z" fill="#F4F4F5"/>
  <path id="svg_21" d="m963.35577,197.3903c-0.77752,3.54184 -2.97503,4.5325 -5.98773,4.4812c-3.65594,-0.06228 -7.31366,-0.01483 -11.15887,-0.01483c0,3.72098 0,7.17371 0,11.26554c6.15716,0 12.23999,0.04666 18.32159,-0.01694c3.85095,-0.04025 7.30591,0.66769 7.40466,5.34424c0.10145,4.8049 -3.46252,5.42074 -7.25878,5.41296c-7.4986,-0.01532 -14.99921,0.09711 -22.49512,-0.04687c-5.65051,-0.10852 -7.01184,-1.60431 -7.02863,-7.28131c-0.03851,-12.9975 -0.04504,-25.99534 0.00251,-38.99279c0.02239,-6.12015 1.62695,-7.70042 7.63769,-7.72648c7.33179,-0.03179 14.66418,0.02765 21.99579,-0.02187c3.87286,-0.02615 7.26862,0.71973 7.15448,5.48959c-0.11304,4.71782 -3.51624,5.34011 -7.3844,5.27121c-5.97949,-0.1065 -11.96234,-0.02807 -18.24109,-0.02807c0,3.45372 0,6.70019 0,10.59738c3.36621,0 6.7887,0.09302 10.20398,-0.02371c4.19934,-0.14354 6.66821,1.54954 6.83392,6.29075z" fill="#F6F6F6"/>
  <path id="svg_22" d="m583.08887,223.84843c-8.40711,0.00992 -16.39148,-0.02472 -24.37531,0.0242c-4.49524,0.02753 -6.66876,-1.87915 -6.62176,-6.60113c0.1325,-13.30557 0.00641,-26.6135 0.06408,-39.92015c0.0268,-6.18361 1.45801,-7.5156 7.75116,-7.53997c7.31873,-0.02833 14.63813,-0.05763 21.95612,0.01679c3.45551,0.03513 7.0437,0.39972 7.04449,5.04671c0.00074,4.47529 -2.83892,5.81004 -6.97802,5.697c-6.13221,-0.16746 -12.27246,-0.04333 -18.73761,-0.04333c0,3.43881 0,6.66513 0,10.59025c3.33325,0 6.7453,-0.02353 10.15686,0.00643c3.63708,0.03193 6.83478,0.83836 6.80072,5.36183c-0.03241,4.29664 -2.68451,5.60554 -6.63324,5.40852c-3.31232,-0.16531 -6.63941,-0.03399 -10.30652,-0.03399c0,3.72479 0,7.25366 0,11.25686c6.36084,0 12.63184,0.04636 18.90173,-0.01791c3.58258,-0.03674 6.35321,1.10916 6.82141,4.98272c0.46332,3.83256 -2.1322,5.22599 -5.84411,5.76517z" fill="#F5F5F5"/>
  <path id="svg_23" d="m748.92987,212.52c-4.12701,0 -7.77283,0 -11.50256,0c-1.06122,2.61783 -1.96875,5.08332 -3.05078,7.46967c-1.41779,3.12677 -3.73285,4.59473 -7.17633,3.22839c-3.62586,-1.43869 -3.84516,-4.21786 -2.58411,-7.36484c4.86584,-12.14328 9.77887,-24.2676 14.67358,-36.39932c0.68079,-1.68738 1.02405,-3.64557 2.11731,-4.99869c1.44818,-1.79236 3.50012,-4.34132 5.25751,-4.31393c2.04517,0.03189 5.00745,2.05017 5.91229,3.98317c4.12348,8.8094 7.67383,17.88762 11.41016,26.87755c2.02795,4.87933 4.0061,9.77933 6.02484,14.6625c1.34119,3.24417 0.84833,5.90354 -2.55127,7.43985c-3.43603,1.55277 -5.67383,-0.12356 -7.3158,-3.04498c-0.16058,-0.28571 -0.28405,-0.61426 -0.33386,-0.93692c-0.9508,-6.17117 -5.02051,-7.41516 -10.88098,-6.60245m-5.82294,-10.85818c3.01502,0 6.03009,0 9.56537,0c-1.95404,-4.80316 -3.57574,-8.78948 -5.78613,-14.22276c-1.79846,5.47311 -3.19666,9.72816 -3.77924,14.22276z" fill="#F8F8F8"/>
  <path id="svg_24" d="m408.15649,218.82445c-1.67294,4.12945 -3.95813,6.13595 -8.21731,4.06701c-4.07147,-1.97772 -2.97684,-5.10095 -1.77133,-8.08398c5.27838,-13.06122 10.67901,-26.07297 15.97683,-39.12641c1.2414,-3.0587 2.74399,-5.83737 6.51581,-5.75314c3.79782,0.08484 5.12073,2.9682 6.36457,6.0621c4.99377,12.42116 10.13137,24.78452 15.2185,37.16813c0.4415,1.07473 0.98605,2.11468 1.33945,3.2167c1.00796,3.1431 0.23556,6.17166 -2.98709,6.75955c-1.9856,0.36225 -6.03589,-1.18844 -6.33725,-2.51932c-2.01407,-8.89425 -8.30088,-8.78515 -15.12961,-8.10543c-0.65982,0.0657 -1.35245,0.1156 -1.995,-0.00818c-4.94531,-0.95239 -7.94305,0.92908 -8.97757,6.32297m8.54676,-21.94002c-0.50333,1.50764 -1.00666,3.0153 -1.50446,4.50642c3.54413,0 6.88397,0 10.71692,0c-1.83856,-4.42116 -3.49683,-8.40875 -5.4751,-13.1658c-1.37954,3.16443 -2.418,5.54649 -3.73736,8.65938z" fill="#F8F8F9"/>
  <path id="svg_25" d="m871.05579,223.66582c-2.26703,-2.28003 -4.65101,-4.31327 -5.8993,-6.89548c-1.48675,-3.07532 -3.04376,-4.61411 -6.69696,-4.34201c-4.95385,0.36902 -9.95581,0.09179 -15.05908,0.09179c-1.01898,2.6301 -1.79571,5.16391 -2.95935,7.50541c-1.4671,2.95196 -3.78839,4.72866 -7.23981,3.1705c-3.38092,-1.52634 -3.81671,-4.16953 -2.48242,-7.43863c5.00952,-12.27396 9.95758,-24.57297 14.93091,-36.86171c0.80804,-1.99674 1.4093,-4.11641 2.48541,-5.95761c2.59571,-4.44126 8.24463,-4.46668 10.27033,0.25256c6.18988,14.42047 12.11249,28.95973 17.87225,43.55806c1.59833,4.05103 -1.00476,6.15427 -5.22198,6.91712m-19.211,-32.61284c-1.27948,3.41929 -2.55896,6.83861 -3.92084,10.47804c3.90356,0 7.15747,0 10.78625,0c-1.82092,-4.40141 -3.53222,-8.53787 -5.43878,-13.14624c-0.55859,0.9198 -0.87451,1.44011 -1.42663,2.6682z" fill="#F8F8F8"/>
  <path id="svg_26" d="m1142.78296,180.55565c-4.0575,-1.00406 -4.82373,-3.98316 -3.68811,-6.65767c0.75964,-1.78899 3.43286,-3.84609 5.30762,-3.90379c11.29785,-0.34777 22.61254,-0.1809 33.92126,-0.12198c3.43628,0.01788 5.07715,1.9615 5.22229,5.33159c0.15527,3.6099 -1.95032,5.21487 -5.14563,5.39854c-3.78418,0.21751 -7.59033,0.0511 -11.85669,0.0511c0,11.49156 0.00024,22.57796 -0.00061,33.66432c-0.00012,1.33051 0.16248,2.68836 -0.0459,3.98602c-0.4779,2.97474 -1.60242,5.41208 -5.26916,5.39417c-3.83118,-0.01874 -5.34876,-2.22336 -5.3739,-5.68637c-0.06641,-9.14691 -0.03785,-18.29452 -0.04541,-27.44185c-0.00269,-3.15291 -0.00049,-6.30582 -0.00049,-9.93709c-4.36243,0 -8.48658,0 -13.02527,-0.07699z" fill="#F6F6F7"/>
  <path id="svg_27" d="m619.85443,186.74051c0,9.64514 0.00574,18.80021 -0.00622,27.9553c-0.00177,1.32865 -0.01001,2.66553 -0.151,3.9841c-0.35187,3.29227 -2.11121,5.16404 -5.54658,5.08494c-3.8374,-0.08829 -5.15374,-2.44605 -5.15362,-5.91602c0.0003,-12.14716 0.00012,-24.29433 0.00012,-37.1712c-3.67041,0 -7.24713,0.03047 -10.82312,-0.00853c-3.59595,-0.0392 -6.24835,-1.38369 -6.28338,-5.42366c-0.03534,-4.08225 2.58947,-5.42731 6.23217,-5.42972c10.6532,-0.00707 21.30689,-0.06064 31.95929,0.0312c3.45502,0.02979 6.83136,0.47605 6.78553,5.27445c-0.04627,4.84262 -3.1493,5.63171 -7.04017,5.57049c-3.13495,-0.04931 -6.2713,-0.00998 -9.97302,-0.00998c0,2.04467 0,3.80661 0,6.05863z" fill="#F7F7F8"/>
  <path id="svg_28" d="m285.23895,169.80726c9.94638,0.00042 19.42191,-0.03021 28.89701,0.01682c3.6965,0.01836 7.16098,0.50465 7.00949,5.50415c-0.14765,4.87198 -3.53476,5.35184 -7.26767,5.35661c-3.12424,0.004 -6.24851,0.00083 -9.85889,0.00083c0,12.56691 0.13568,24.81617 -0.14145,37.0561c-0.04321,1.90811 -1.54751,4.57554 -3.15039,5.41706c-1.40134,0.73571 -4.41678,-0.01709 -5.74686,-1.20288c-1.19522,-1.06559 -1.43841,-3.60926 -1.46301,-5.50919c-0.13116,-10.13861 -0.06195,-20.27979 -0.06204,-30.42007c0,-1.62864 0.00003,-3.25727 0.00003,-5.34099c-3.62851,0 -6.91837,-0.02602 -10.20761,0.00691c-3.70407,0.03709 -6.89496,-0.96643 -6.9997,-5.25099c-0.11075,-4.5315 3.03522,-5.79567 7.02408,-5.63697c0.4979,0.01981 0.99729,0.00265 1.96701,0.00261z" fill="#F6F6F6"/>
  <path id="svg_29" d="m259.13464,214.46867c0.00006,-12.75894 -0.18035,-25.04815 0.15891,-37.32301c0.06451,-2.33418 1.60696,-5.55275 3.48532,-6.70749c3.30493,-2.03166 6.98663,0.63031 7.02756,4.81767c0.14111,14.44089 0.22326,28.88843 -0.15824,43.32056c-0.04675,1.76843 -2.767,4.40814 -4.72692,4.96771c-3.1009,0.88541 -5.28693,-1.28451 -5.71686,-4.62173c-0.16846,-1.30765 -0.05487,-2.65162 -0.06977,-4.45371z" fill="#F3F4F4"/>
  <path id="svg_30" d="m1025.98852,123.72798c0.86561,-8.10031 6.91309,-13.46486 14.05726,-12.88737c6.71838,0.54307 12.08996,6.26925 12.10827,12.90745c0.02002,7.27664 -5.10717,12.84786 -12.15686,13.20947c-8.04187,0.41251 -13.0697,-4.18542 -14.00867,-13.22955z" fill="#CFCD49"/>
  <path id="svg_31" d="m1076.42017,28.01227c-5.49756,4.81221 -10.36292,5.53219 -15.68836,2.5588c-4.87512,-2.72202 -7.12158,-7.83619 -5.95117,-13.54958c1.08252,-5.28387 5.08264,-9.18375 10.50208,-9.85174c5.00537,-0.61692 9.24804,1.15581 12.08019,5.33311c3.47803,5.13007 2.96583,10.31023 -0.94274,15.50941z" fill="#CDCC49"/>
  <path id="svg_32" d="m349.01797,198.11882c1.05317,-5.98778 4.95807,-7.43202 9.92453,-7.30492c3.73499,0.0956 7.50022,0.32651 8.94437,4.67388c1.62949,4.90542 0.37522,11.32824 -2.44879,13.4284c-3.25259,2.41889 -10.02396,2.42804 -13.21536,0.07062c-3.65628,-2.70081 -3.28635,-6.61456 -3.20475,-10.86798z" fill="#F6F6F6"/>
 </g>
</svg>